<svg width="16" height="18" viewBox="0 0 16 18" fill="none" xmlns="http://www.w3.org/2000/svg">
<path d="M8.11265 0.0214691C8.11265 0.0415583 8.07885 0.312756 8.03582 0.630827C7.99279 0.948899 7.95898 1.23349 7.95898 1.26697C7.95898 1.31384 8.00509 1.33393 8.19871 1.36741C9.13916 1.53147 10.2732 2.0136 11.0938 2.60622C11.5979 2.97117 11.9175 3.25241 12.3355 3.7044C13.4173 4.86955 14.1273 6.27911 14.4592 7.91299C14.5145 8.20093 14.5329 8.24781 14.5852 8.24111C14.7358 8.22772 15.6916 8.05027 15.7101 8.03353C15.7223 8.02348 15.6978 7.84603 15.6578 7.6418C15.0769 4.71889 13.3005 2.23793 10.8418 0.922114C10.0643 0.503599 9.27746 0.21566 8.54293 0.0783873C8.38311 0.048254 8.22022 0.0147734 8.18334 0.00472832C8.14339 -0.00531578 8.11265 0.00137997 8.11265 0.0214691Z" fill="white"/>
<path d="M2.40976 1.66873C2.11164 1.73569 1.97641 1.84953 1.18656 2.7033C0.768575 3.15529 0.375183 3.60394 0.319862 3.70104C-0.233347 4.62512 -0.0673843 6.15856 0.805456 8.22435C1.78586 10.5346 3.54384 12.8649 5.56305 14.5255C6.75245 15.5032 8.16928 16.3436 9.34331 16.7721C10.3145 17.1237 11.2273 17.2241 11.8082 17.04C12.2446 16.9027 12.3399 16.8223 13.2065 15.8849C13.9349 15.0947 14.021 14.9876 14.1101 14.78C14.1962 14.5791 14.2115 14.5088 14.2115 14.2912C14.2115 14.0735 14.1962 14.0032 14.1101 13.8023C14.0179 13.588 13.9288 13.4809 12.8992 12.3626C11.9926 11.3783 11.7559 11.1372 11.6176 11.0669C11.384 10.943 11.1658 10.9029 10.9661 10.943C10.6341 11.0133 10.5081 11.1138 9.73978 11.9374C9.34024 12.366 8.98987 12.7175 8.96221 12.7175C8.88538 12.7175 8.16313 12.3124 7.88345 12.1115C6.79548 11.3415 5.56305 10.0323 4.77319 8.81362C4.50273 8.39511 4.37672 8.16409 4.1954 7.75562C4.08168 7.50116 4.05402 7.41076 4.07246 7.3371C4.08475 7.27683 4.34292 6.96881 4.7947 6.47328C5.42475 5.78357 5.5108 5.67643 5.59378 5.4722C5.75667 5.08716 5.71979 4.71887 5.48929 4.33718C5.43089 4.24009 4.90842 3.64747 4.32755 3.01802C3.38095 1.99015 3.25187 1.86292 3.07361 1.77252C2.8554 1.66203 2.60646 1.6252 2.40976 1.66873Z" fill="white"/>
<path d="M7.95092 3.50677C7.90789 3.74784 7.79725 4.71544 7.80954 4.72884C7.81569 4.73888 7.93248 4.76901 8.06771 4.79915C9.64435 5.15405 10.9014 6.48995 11.2794 8.21088C11.3132 8.35485 11.3409 8.47873 11.347 8.48208C11.3624 8.49547 12.5087 8.2745 12.5241 8.25776C12.5456 8.23767 12.4934 7.95308 12.4104 7.64505C11.8572 5.5123 10.2099 3.87841 8.19986 3.46659L7.96628 3.41972L7.95092 3.50677Z" fill="white"/>
</svg>
