<svg width="14" height="20" viewBox="0 0 14 20" fill="none" xmlns="http://www.w3.org/2000/svg">
<path d="M6.05881 0.00971603C5.25311 0.109369 4.79221 0.216688 4.27149 0.427496C2.89231 0.990925 1.73829 2.02196 0.953703 3.39796C0.214852 4.69729 -0.126426 6.37992 0.0424539 7.88239C0.316884 10.3009 1.90014 13.6355 4.52481 17.3304C5.14404 18.2043 5.9427 19.2506 6.12566 19.4308C6.36842 19.6684 6.66396 19.6684 6.90673 19.4308C7.08968 19.2506 7.88834 18.2043 8.50757 17.3304C10.8684 14.0073 12.3848 10.987 12.8633 8.6413C12.9864 8.03954 13.0251 7.64859 13.0251 7.02C13.0216 5.18023 12.3461 3.42096 11.1252 2.09479C10.119 0.994759 8.93329 0.331675 7.53651 0.0825386C7.20578 0.0250454 6.29805 -0.0209465 6.05881 0.00971603ZM6.92784 3.55511C8.24018 3.74675 9.32734 4.77395 9.68269 6.15761C9.77769 6.52173 9.81287 7.25381 9.75658 7.65242C9.59122 8.78695 8.90866 9.78349 7.94112 10.2971C7.37115 10.5999 6.7871 10.7149 6.1925 10.642C5.72808 10.5846 5.49235 10.5117 5.09126 10.2971C4.12372 9.78349 3.44117 8.78695 3.2758 7.65242C3.21951 7.25381 3.25469 6.52173 3.34969 6.15761C3.78948 4.44816 5.34107 3.31747 6.92784 3.55511Z" fill="white"/>
</svg>
