<svg width="18" height="15" viewBox="0 0 18 15" fill="none" xmlns="http://www.w3.org/2000/svg">
<path d="M1.23917 0.062726C0.37645 0.291235 -0.164863 1.2495 0.0516626 2.15986C0.119327 2.43628 0.244505 2.6869 0.413666 2.87856C0.56591 3.0481 7.77214 8.30014 8.03603 8.42913C8.43863 8.62816 8.91566 8.62079 9.32841 8.4107C9.64982 8.24485 16.7106 3.09601 16.8899 2.89698C17.7323 1.96083 17.2722 0.368634 16.0678 0.0590401C15.7497 -0.0220442 1.55042 -0.0183582 1.23917 0.062726Z" fill="white"/>
<path d="M0 8.27442C0 11.2598 0.0101496 12.6272 0.0372153 12.7635C0.162394 13.4122 0.642809 13.9429 1.25517 14.1014C1.57319 14.1825 15.6913 14.1825 16.0465 14.1014C16.6623 13.9614 17.1596 13.4233 17.2848 12.7635C17.3288 12.5387 17.3389 3.96959 17.2949 3.9917C17.2814 3.99539 15.6473 5.18216 13.6614 6.62693C11.6754 8.07171 9.94324 9.31377 9.80791 9.3838C9.43576 9.59019 9.11774 9.66759 8.66101 9.66759C8.20427 9.66759 7.88625 9.59019 7.5141 9.3838C7.37877 9.31377 5.64657 8.07171 3.66063 6.62693C1.67469 5.18216 0.0405985 3.99539 0.0270656 3.9917C0.0101496 3.98433 0 5.91192 0 8.27442Z" fill="white"/>
</svg>
