<svg width="42" height="28" viewBox="0 0 42 28" fill="none" xmlns="http://www.w3.org/2000/svg">
<path fill-rule="evenodd" clip-rule="evenodd" d="M25.6276 0C31.9787 0 37.1278 5.14873 37.1278 11.5002C37.1278 17.8513 31.9791 23 25.6276 23C20.6947 23 16.4879 19.8935 14.8546 15.5305L14.8527 15.5272C12.0553 10.7601 9.48961 14.5131 9.48961 14.5131C8.54364 15.8499 6.98543 16.723 5.22314 16.723C2.33842 16.723 0 14.3845 0 11.4998C0 8.6151 2.33842 6.27668 5.22314 6.27668C7.04105 6.27668 8.64162 7.20571 9.57729 8.61436L9.57839 8.61584C12.9133 12.2649 14.9655 7.18324 14.9655 7.18324C16.6725 2.97091 20.803 0 25.6276 0Z" fill="#F2F2F2"/>
<g filter="url(#filter0_d_1_1074)">
<path d="M25.6276 20.3319C30.5052 20.3319 34.4593 16.3778 34.4593 11.5002C34.4593 6.62255 30.5052 2.66846 25.6276 2.66846C20.75 2.66846 16.7959 6.62255 16.7959 11.5002C16.7959 16.3778 20.75 20.3319 25.6276 20.3319Z" fill="url(#paint0_linear_1_1074)"/>
</g>
<path fill-rule="evenodd" clip-rule="evenodd" d="M20.8904 10.4385C20.7906 10.6838 20.868 10.6046 21.0967 11.0028C21.4691 11.6501 21.5738 11.7889 21.9152 12.5482C22.4019 13.6304 22.7986 14.8339 23.0484 16.0326C23.2163 16.8386 23.4554 16.2134 23.7018 15.8613C24.1774 15.1816 24.629 14.5182 25.1429 13.889C25.6723 13.2411 26.16 12.6395 26.686 12.0579C27.6504 10.991 28.2041 10.4669 29.1769 9.53598C29.7347 9.00184 30.3826 8.49718 30.9083 8.01682C31.2144 7.73723 31.7231 7.48747 31.6664 7.22445C31.5143 7.15888 31.4461 7.20346 31.329 7.26055C30.5967 7.61677 30.1973 7.77038 29.4068 8.22348C27.821 9.13262 26.865 9.78058 25.4884 11.0566C25.1569 11.3638 24.5207 12.0037 24.2039 12.3824C23.6834 13.0046 23.7519 12.8362 23.5412 12.3809C23.3497 11.9669 23.083 11.579 22.7603 11.2563C22.4494 10.9454 21.4526 10.3066 20.8904 10.4389V10.4385Z" fill="white"/>
<defs>
<filter id="filter0_d_1_1074" x="15.7959" y="1.66846" width="25.6631" height="25.6636" filterUnits="userSpaceOnUse" color-interpolation-filters="sRGB">
<feFlood flood-opacity="0" result="BackgroundImageFix"/>
<feColorMatrix in="SourceAlpha" type="matrix" values="0 0 0 0 0 0 0 0 0 0 0 0 0 0 0 0 0 0 127 0" result="hardAlpha"/>
<feOffset dx="3" dy="3"/>
<feGaussianBlur stdDeviation="2"/>
<feComposite in2="hardAlpha" operator="out"/>
<feColorMatrix type="matrix" values="0 0 0 0 0 0 0 0 0 0 0 0 0 0 0 0 0 0 0.2 0"/>
<feBlend mode="normal" in2="BackgroundImageFix" result="effect1_dropShadow_1_1074"/>
<feBlend mode="normal" in="SourceGraphic" in2="effect1_dropShadow_1_1074" result="shape"/>
</filter>
<linearGradient id="paint0_linear_1_1074" x1="17.3172" y1="22.2479" x2="40.5509" y2="17.1383" gradientUnits="userSpaceOnUse">
<stop offset="0.288785" stop-color="#07613F"/>
<stop offset="1" stop-color="#189F6C"/>
</linearGradient>
</defs>
</svg>
