<svg width="68" height="53" viewBox="0 0 68 53" fill="none" xmlns="http://www.w3.org/2000/svg">
<path fill-rule="evenodd" clip-rule="evenodd" d="M4.67889 33.9334C4.67889 33.1697 5.49806 32.7262 6.33981 32.7262H37.4332C39.4986 32.7262 39.4986 35.1406 37.4332 35.1406H6.03802C5.30508 35.1406 4.67685 34.6417 4.67685 33.9334H4.67889ZM56.4629 25.1115H51.6115C51.6115 25.1115 50.2504 25.1977 50.1642 26.5014C50.08 27.805 50.1642 30.5869 50.1642 30.5869C50.1642 30.5869 50.2216 32.1472 52.8311 32.2889L52.9583 32.2951L53.0918 32.3012H53.0959L53.2355 32.3074H53.2437L53.3854 32.3115H53.3998C56.5922 32.4203 64.9338 32.3505 64.9338 32.3505L57.0624 25.2038L56.5512 25.1956L56.465 25.1115H56.4629ZM53.2848 46.7649C53.2848 47.2679 53.217 48.276 54.492 48.276C55.8716 48.276 56.4342 45.8616 54.1902 45.8616C53.8268 45.8616 53.2848 46.4036 53.2848 46.767V46.7649ZM15.8516 47.0667C15.8516 48.6455 18.3481 48.7133 18.3583 47.0688C18.3686 45.4058 15.8516 45.5064 15.8516 47.0667ZM17.2107 50.5384C12.5072 50.5384 12.7043 43.595 17.0608 43.595C21.828 43.595 21.4564 50.5384 17.2107 50.5384ZM11.1706 47.0667C11.1706 50.1915 13.5378 52.9549 17.0793 53.0021C24.8952 53.1068 25.0698 41.271 17.1943 41.0575C16.5352 41.039 15.2706 41.3203 14.7368 41.5769C13.7698 42.0388 13.6528 42.0881 12.9424 42.8005C11.842 43.9009 11.1686 45.412 11.1686 47.0667H11.1706ZM51.0182 47.2166C51.0182 43.8044 54.6932 42.6034 56.7811 44.4737C58.9738 46.4385 57.4956 50.5384 54.6418 50.5384C53.5866 50.5384 52.6689 50.1299 52.1043 49.6022C51.6013 49.1321 51.0182 48.1446 51.0182 47.2166ZM48.6038 46.4611C48.6038 48.4156 48.8194 50.1915 50.4557 51.5526C54.2723 54.7287 60.3781 52.4334 60.3781 47.0647C60.3781 45.1348 59.5794 43.6546 58.4728 42.628C54.765 39.1912 48.6018 41.8869 48.6018 46.4611V46.459L48.6038 46.4611ZM27.17 28.653L27.4677 27.8954C27.6792 27.6737 27.7962 27.5977 28.2253 27.5977H37.8849C39.4493 27.5977 39.2276 29.8601 37.735 29.8601H28.3772C27.6463 29.8601 27.17 29.3838 27.17 28.653ZM4.67889 28.8028C4.67889 28.2506 5.09566 27.5956 5.58429 27.5956H13.1313C14.6464 27.5956 14.5479 29.8581 12.9814 29.8581H6.18994C5.39952 29.8581 4.67889 29.5542 4.67889 28.8008V28.8028ZM33.6597 23.6723C33.6597 21.9025 34.4809 22.3152 37.8869 22.3152C39.4021 22.3152 39.3035 24.5818 37.7371 24.5818C36.456 24.5818 33.6618 24.9287 33.6618 23.6764L33.6597 23.6743V23.6723ZM4.67889 23.3705C4.67889 22.1202 6.13656 22.3131 6.94546 22.3131C8.02947 22.3131 8.20808 24.5797 6.64366 24.5797C6.01132 24.5797 4.68094 24.7275 4.68094 23.3725L4.67889 23.3705ZM0 18.2399V44.9562C0 46.5761 1.56032 48.276 3.62363 48.276C6.06265 48.276 9.82177 48.8652 9.24897 46.7382C8.9636 45.6768 8.18961 45.8575 6.94546 45.8595C1.67529 45.8842 2.41644 46.4549 2.41644 39.6717H41.2088C41.2088 46.5514 41.9171 45.8616 37.1335 45.8595L26.5603 45.8513C24.1007 45.8513 24.8172 48.276 26.2667 48.276H45.8897C47.0271 48.276 47.4931 45.8616 45.7398 45.8616H43.6272C43.6416 45.18 43.7771 45.2621 43.7771 44.5025V22.1612H53.8904C54.3277 22.1612 55.188 23.2042 55.4015 23.5183C53.7837 23.5183 51.6957 23.3623 50.544 23.7954C47.7395 24.8425 48.3061 27.7517 48.3061 30.6157C48.3061 32.9972 50.7164 33.9354 53.137 33.9354H65.213V44.2007C65.213 45.1369 64.9584 45.1861 64.6073 45.7117C63.9504 45.7117 63.5459 45.6337 63.0922 45.8575C62.4947 46.1511 62.3428 46.5309 62.3428 47.0708C62.3428 49.5756 67.6274 48.1754 67.6274 44.9583V32.4306C67.6274 31.749 59.3721 23.7975 57.8528 22.2803C56.8756 21.303 55.5452 19.6011 53.7406 19.6011H43.7771C43.7771 17.7841 43.7607 16.9937 42.3872 15.7105C41.0979 14.5075 38.1374 14.7723 36.0802 14.7723C35.3904 14.7723 35.6614 16.3285 34.7663 18.439C34.0867 20.0363 33.3435 21.4468 32.1179 22.732C31.7339 23.1344 31.6724 23.3725 31.2741 23.701C29.9232 24.822 28.8679 25.7233 27.131 26.5034C24.2629 27.7927 23.2508 27.9036 20.0788 27.9036C13.6692 27.9036 8.23887 23.3007 6.28437 17.3982C5.47958 14.9715 6.19609 14.7744 4.83492 14.7744C3.28077 14.7744 2.51499 14.9222 1.53774 15.5545C0.813011 16.0226 0.00205505 17.1107 0.00205505 18.2461V18.244L0 18.2399Z" fill="#16A16C"/>
<path fill-rule="evenodd" clip-rule="evenodd" d="M19.623 12.1976V5.70591C19.623 5.27888 20.2532 4.80052 20.6803 4.80052C22.2981 4.80052 21.8875 6.79197 21.8875 8.42414C21.8875 12.7294 21.4543 12.0088 23.5094 14.0474C24.2074 14.7393 26.8661 17.5931 26.8661 17.9359C26.8661 18.7058 26.4719 19.293 25.8088 19.293C24.9876 19.293 24.3614 18.3732 23.8851 17.8969L22.3001 16.16C21.3968 15.269 19.6209 13.8093 19.6209 12.1997V12.1976H19.623ZM7.84872 12.9532C7.84872 22.0954 18.6334 29.5356 27.8331 23.4278C28.9253 22.7051 29.5289 22.2083 30.3173 21.2331C34.1565 16.4782 34.6554 10.5634 31.276 5.52524C29.9642 3.57074 28.1965 2.08023 26.0059 1.13583C17.108 -2.70953 7.84668 3.70214 7.84668 12.9552L7.84872 12.9532Z" fill="#FEA44E"/>
</svg>
