<svg width="58" height="55" viewBox="0 0 58 55" fill="none" xmlns="http://www.w3.org/2000/svg">
<path fill-rule="evenodd" clip-rule="evenodd" d="M43.1592 6.01423L40.5477 4.88916C40.287 4.85426 39.8641 4.69207 39.5027 4.55862L39.1086 4.41285L34.9121 3.18513C34.4174 3.064 33.9513 2.95314 33.4688 2.84638C32.9802 2.74167 32.4793 2.64518 31.9291 2.55484L28.7325 2.0539C28.3198 2.0539 27.8353 2.03132 27.3467 1.99642C26.7307 1.9533 26.1025 1.89376 25.62 1.84038C24.3697 1.70078 23.2385 1.7829 22.2305 1.86091C21.6802 1.89992 21.1588 1.94098 20.666 1.93688C20.2534 1.93482 19.1796 2.03542 18.1654 2.16066C17.2457 2.27358 16.3752 2.40703 16.1062 2.49531L16.0426 2.50762C15.6217 2.50762 14.782 2.66366 13.8458 2.87717C12.4662 3.18924 10.8935 3.62243 10.1606 3.84621C9.79309 3.95708 9.41944 4.08847 9.03552 4.21781L8.3765 4.43954C7.17136 4.83783 6.0586 5.27513 4.97048 5.7576C3.91727 6.22569 2.88255 6.73895 1.80881 7.30354L1.817 15.4747C1.82522 21.1062 1.83755 26.7418 1.8047 32.3692C1.79854 33.3711 1.90323 34.3237 2.07363 35.2127C2.24404 36.1016 2.48219 36.9372 2.74087 37.7071C2.93181 38.2779 3.2644 38.9697 3.636 39.639C4.05687 40.3966 4.53731 41.1398 4.93765 41.6592L6.37273 43.3756L7.15904 44.1619C8.02747 45.0365 9.0848 45.7817 10.0436 46.4572C10.4891 46.7693 10.912 47.0711 11.2939 47.3626L11.4561 47.496C11.7763 47.5987 12.2465 47.8964 12.616 48.1325L12.9178 48.3193C13.2217 48.502 13.5112 48.6581 13.8047 48.8141L14.3755 49.1241C15.3671 49.6784 17.7651 50.6947 19.9659 51.5056C21.748 52.1585 23.3945 52.6759 24.0351 52.6923L24.7598 52.4316C27.1721 51.6617 28.6072 51.1813 30.0382 50.5736C31.4302 49.9823 32.8303 49.2678 35.1462 48.0421C34.8957 47.5248 34.7458 47.0197 34.6288 46.6214L34.5241 46.2724C33.8671 46.6748 32.3869 47.5022 31.0729 48.1366C30.1183 48.5965 29.2396 48.9599 28.7982 49.005C27.6587 49.5244 26.975 49.818 25.8089 50.2266C24.8974 50.551 24.419 50.7214 23.9591 50.746C23.4438 50.7748 22.9983 50.6208 22.0662 50.3026L21.36 50.0603C20.6866 49.8365 20.085 49.623 19.504 49.4033C18.9189 49.1816 18.342 48.9496 17.7261 48.6806C17.1574 48.4363 16.6174 48.1674 16.0898 47.8984C15.4965 47.6007 14.9134 47.3072 14.2975 47.0608C13.6528 46.7364 12.1233 45.7592 11.5218 45.3095C9.27367 43.6384 7.62098 42.4127 5.9847 39.949C5.51866 39.2469 5.10189 38.5304 4.75493 37.7708C4.40796 37.0091 4.13081 36.2002 3.93987 35.3133C3.53953 33.4327 3.62163 22.6624 3.66475 16.8728L3.68119 13.8589C3.68119 12.7215 3.66065 11.851 3.64628 11.1571C3.61753 9.8021 3.60315 9.09175 3.76534 8.63186C3.96449 8.07754 4.36279 7.92356 5.19223 7.60329C5.44475 7.50679 5.74243 7.38977 6.10377 7.23579C7.59428 6.59935 9.50978 5.8972 11.454 5.32646C13.1047 4.83783 14.7779 4.43954 16.2294 4.24656C16.562 4.20344 16.8966 4.14801 17.2457 4.09258C18.1736 3.94476 19.1858 3.78667 20.0809 3.78667C20.354 3.78667 20.5778 3.75998 20.8139 3.73535C21.0972 3.70455 21.3969 3.66965 21.8116 3.67376C23.2775 3.68197 25.5543 3.69634 27.7901 3.82979C30.0279 3.96323 32.2452 4.21576 33.6105 4.70028C33.9718 4.74339 34.4851 4.88711 34.9368 5.01234L35.4706 5.15811C36.2322 5.34493 39.1147 6.24828 41.2642 7.12082C42.6049 7.66693 43.6786 8.22125 43.8347 8.6257C43.9804 8.9973 43.9291 24.2206 43.9086 29.8316L43.9024 31.5788C44.0338 31.5706 44.1303 31.5521 44.2289 31.5336C44.3623 31.509 44.504 31.4823 44.7093 31.472C44.9474 31.4597 45.2184 31.4638 45.4792 31.47L45.6516 31.472V7.2091C45.2081 7.06744 44.5984 6.74101 44.0461 6.44537C43.7135 6.26675 43.4015 6.0984 43.1633 5.9937L43.1613 6.00807L43.1592 6.01423ZM22.5015 0.0172788C24.6161 -0.0402066 26.7554 0.0439684 28.7427 0.296493C29.6399 0.296493 30.6705 0.479214 31.5267 0.627034L32.0728 0.721474C33.2471 0.91446 34.4358 1.17109 35.6102 1.46468C36.8749 1.7829 38.1334 2.15861 39.3426 2.561L39.9072 2.76836C40.172 2.86896 40.4328 2.96751 40.6483 3.02499L41.8453 3.50335C42.7322 3.85237 43.5986 4.19728 44.4649 4.62842C44.9187 4.85631 45.3334 5.04519 45.6865 5.20533C47.0066 5.80482 47.5302 6.04297 47.5302 7.18446L47.524 28.5177C47.524 29.2937 47.5096 29.9035 47.4973 30.3675C47.4829 30.9649 47.4747 31.3016 47.5117 31.4761C47.5384 31.5931 47.639 31.6075 47.873 31.6363L48.0886 31.665C48.4807 31.7225 48.6655 31.7759 48.9488 31.858L49.1315 31.9093C51.8128 32.6689 53.8823 34.2026 55.305 36.1365C56.6744 38.0007 57.4464 40.2385 57.586 42.5153C57.7256 44.7901 57.2369 47.106 56.0913 49.1282C54.9088 51.2121 53.0262 52.9838 50.4147 54.074C49.3471 54.5195 48.2549 54.8152 47.1216 54.9383C45.9883 55.0595 44.814 55.0122 43.5842 54.7659C43.2167 54.692 42.8513 54.6119 42.5022 54.5093C42.1553 54.4107 41.8227 54.2855 41.527 54.1192C40.5272 53.8317 39.5274 53.2281 38.6199 52.4829C37.5852 51.6329 36.6716 50.5982 36.0208 49.6558L35.6286 49.8632C33.9575 50.7522 32.3356 51.6103 30.4385 52.3659L29.7857 52.6266C28.3752 53.1912 27.3487 53.6039 25.7514 54.0576L25.3162 54.1972C24.9446 54.3224 24.5771 54.4477 24.1316 54.4702C24.1111 54.4928 24.0885 54.5092 24.0495 54.5236C24.0146 54.538 23.9981 54.538 23.9509 54.5462L23.838 54.5626C23.4849 54.6201 22.8156 54.3922 22.3824 54.2465L22.2222 54.1931C20.5408 53.6429 18.0114 52.7498 15.6874 51.7561C14.0511 51.0581 12.5113 50.3046 11.4396 49.5819L11.142 49.3376C10.8381 49.2432 10.2817 48.8983 9.66377 48.4712C8.58181 47.7178 7.28221 46.6974 6.89418 46.3853C6.25979 45.8762 5.69523 45.2705 5.19839 44.7408C4.96229 44.4883 4.74055 44.2522 4.5414 44.0592C3.5272 43.0676 2.7881 41.8194 2.07569 40.6204L2.05105 40.5752C1.24421 39.214 0.73505 37.8447 0.433252 36.4178C0.129401 34.995 0.0308626 33.5107 0.0308626 31.9155V8.31775C0.0308626 8.09396 0.0226594 7.8825 0.0144472 7.68746C-0.0142954 6.96684 -0.038933 6.37146 0.34704 6.03065C0.75149 5.67548 1.88477 5.1191 3.19667 4.54425C5.21892 3.66144 7.68872 2.72525 8.54895 2.43987C9.13202 2.24689 9.71713 2.06827 10.3187 1.89787C10.9243 1.72747 11.5402 1.56733 12.1849 1.40719L13.1273 1.18341L14.5048 0.887771C14.9853 0.783065 15.6155 0.645511 16.0056 0.633193C18.0012 0.29444 20.2328 0.072711 22.4891 0.0131727L22.4973 0.0193318L22.5015 0.0172788ZM34.3085 6.78412C33.978 6.70816 33.6475 6.63014 33.3169 6.54186C32.2883 6.30781 31.0894 6.07582 29.8986 5.89105C28.8844 5.73501 27.8804 5.61799 27.0058 5.57282C24.8584 5.46196 23.8133 5.49275 22.5774 5.52971C21.8753 5.55024 21.1136 5.57282 20.0891 5.57488C19.7853 5.64263 19.6313 5.68779 19.3336 5.69601C19.2371 5.69806 19.1488 5.69806 19.0154 5.71654L18.0155 5.84383C15.7428 6.17847 13.3305 6.67942 11.0085 7.37129C9.03757 7.95846 7.13029 8.68935 5.43447 9.57626L5.44269 16.9097C5.44885 20.3137 5.45502 23.7177 5.44886 27.1196C5.4468 28.7558 5.44063 30.3962 5.43242 32.0304C5.42626 33.2602 5.57819 34.4304 5.87794 35.5247C6.18179 36.6293 6.63962 37.6578 7.23911 38.5899C7.9741 39.7376 8.28412 40.0414 8.58592 40.3371C8.75016 40.4993 8.91645 40.6614 9.14229 40.9468L10.563 42.3224L14.5664 45.1186C14.819 45.2213 14.9565 45.3034 15.1125 45.3958L15.4225 45.5723C17.3996 46.6091 18.6068 47.0772 20.3416 47.7547L21.4975 48.2064C23.5649 49.0215 23.7004 48.9763 24.8604 48.5842L25.3264 48.4281C26.1682 48.1489 28.3629 47.4242 28.6052 47.1942L28.6791 47.1491C30.2476 46.6235 31.4918 45.907 32.7523 45.1864C33.2204 44.9195 33.6926 44.6464 34.1833 44.3857C34.1771 44.088 34.1607 43.8355 34.1443 43.5891C34.0909 42.8582 34.0416 42.1992 34.3722 40.6738C34.5652 39.7704 34.8895 38.8466 35.3145 37.9863C35.7231 37.1528 36.2343 36.3726 36.8194 35.7198C36.9282 35.5986 36.9878 35.5186 37.0473 35.4385C37.1068 35.3564 37.1684 35.2743 37.2752 35.1552C37.46 34.9458 38.0594 34.3976 38.6179 33.9562C38.9895 33.6667 39.3529 33.4162 39.5931 33.3259C39.7881 33.1247 40.1885 32.8804 40.6299 32.6607C41.1103 32.4226 41.6482 32.2029 42.0157 32.0961V9.46745L39.7635 8.5251C39.1496 8.28079 38.5193 8.02827 37.8603 7.80859L36.7742 7.45547L35.6225 7.10645C35.1688 6.97505 34.7397 6.87651 34.3106 6.77386L34.3085 6.78001V6.78412ZM40.8968 34.6624C40.5703 34.8575 40.2357 35.0607 39.8353 35.2558C39.745 35.3666 39.552 35.5432 39.32 35.7567C38.9402 36.1098 38.4393 36.5697 38.1744 36.9187C37.9465 37.2164 37.7084 37.5408 37.4805 37.8898C37.2588 38.2286 37.0493 38.5858 36.8748 38.9615C35.9345 40.9981 35.7354 43.3776 36.2466 45.5785C36.7393 47.689 37.8891 49.6435 39.6649 50.9801L41.5599 52.2612C41.8124 52.2899 42.1019 52.3967 42.4489 52.5281C42.9087 52.7005 43.4857 52.914 44.2001 53.0228C45.1343 53.1624 46.0561 53.1789 46.9389 53.0844C49.15 52.8483 51.1599 51.9142 52.7038 50.4627C54.2457 49.0112 55.3235 47.0382 55.6705 44.7326C55.806 43.8149 55.8306 42.8459 55.7218 41.8378C55.6335 41.0084 55.3974 40.2016 55.0854 39.4625C54.7138 38.5797 54.2272 37.7892 53.7386 37.1548C52.6669 35.7629 51.2564 34.6727 49.6366 34.0096C48.0845 33.3731 46.3353 33.1288 44.5142 33.3813C42.5946 33.6462 41.7693 34.143 40.8927 34.6707L40.8988 34.6624H40.8968ZM43.7217 49.081C44.5081 49.3397 45.3806 49.4197 46.4133 49.4197C47.0231 49.4197 47.8361 49.1754 48.5916 48.8182C49.3533 48.4548 50.0492 47.9806 50.4065 47.5227L50.6754 47.1983C50.815 47.0362 50.93 46.9027 51.084 46.6481L51.1805 46.4921C51.3365 46.2375 51.4535 46.0404 51.5931 45.7202C52.1269 44.4781 52.2439 43.1662 51.9853 41.9446C51.7266 40.7087 51.0881 39.561 50.1211 38.6741L49.5072 38.1506C49.3307 38.0171 49.2034 37.9268 49.0638 37.8447C48.9324 37.7646 48.7825 37.6907 48.5546 37.586C46.5755 36.6703 44.6805 36.814 43.1531 37.5921C42.2107 38.0726 41.4039 38.7993 40.8003 39.6657C40.2008 40.5342 39.8025 41.5463 39.6772 42.5995C39.4719 44.322 39.9934 46.1657 41.527 47.6911C42.2292 48.3912 42.9354 48.8223 43.7156 49.0769L43.7177 49.083L43.7217 49.081ZM37.9506 44.7942C37.8418 44.1927 37.8172 43.5788 37.8172 42.813C37.8172 41.378 38.353 39.9018 39.2235 38.6474C40.1043 37.3827 41.3279 36.3398 42.6932 35.7978C44.3459 35.1387 45.9596 34.9745 47.4542 35.266C48.9776 35.5637 50.3798 36.3336 51.5788 37.5326C53.5415 39.4953 54.1985 41.8399 53.9295 44.0325C53.7612 45.3917 53.2417 46.6954 52.4554 47.8122C51.6711 48.9291 50.622 49.8632 49.4046 50.4894C47.4213 51.5097 44.9905 51.7109 42.5084 50.5571C41.7098 50.1855 41.408 49.9494 40.8331 49.4895L40.5868 49.2966C40.4697 49.2062 40.363 49.1262 40.2316 48.9989C39.938 48.7176 39.63 48.3398 39.3447 47.9416C39.047 47.5186 38.776 47.067 38.5912 46.681C38.2565 45.9788 38.0635 45.3937 37.9527 44.7881V44.7942H37.9506Z" fill="#16A16C"/>
<path fill-rule="evenodd" clip-rule="evenodd" d="M44.4878 43.5789L44.6582 43.8828C45.1181 43.5235 45.7114 42.8891 46.3088 42.2485C47.2984 41.1892 48.3023 40.1113 48.9121 40.1113L48.9696 40.1134C49.1913 40.1339 49.3905 40.2756 49.5321 40.4542C49.6656 40.6266 49.7538 40.8484 49.7538 41.0373L49.7518 41.0947C49.7025 41.6142 47.6926 43.5358 46.6496 44.5295L45.9701 45.1906C45.4671 45.6936 45.1263 46.0344 44.843 46.1986C44.1244 46.6113 43.8349 46.1185 42.9624 44.6075L42.794 44.3406C42.4963 43.8684 42.0303 43.1334 42.0303 42.5811C42.0303 42.1315 42.2828 41.8133 43.0157 41.8133C43.5167 41.8133 44.0977 42.8645 44.4898 43.5748L44.4878 43.5789Z" fill="#FEA44E"/>
<path fill-rule="evenodd" clip-rule="evenodd" d="M17.1575 35.9334L17.7118 35.919C17.9787 35.919 18.1512 35.8349 18.2538 35.6911C18.3667 35.529 18.416 35.2846 18.416 34.9869V24.2085C18.416 23.9108 18.3667 23.6665 18.2538 23.5043C18.1512 23.3585 17.9746 23.2764 17.7118 23.2764L17.0322 23.2558C16.7797 23.2476 16.5169 23.2353 16.25 23.2353C15.511 23.2353 14.8499 23.3174 14.8499 23.7527V35.4386C14.8499 35.8739 15.6198 35.9498 16.3917 35.9498C16.6648 35.9498 16.9235 35.9416 17.1554 35.9334H17.1575ZM22.6514 35.2662C23.0661 35.2538 23.5404 35.2374 24.0578 35.2374L25.187 35.2518C26.8807 35.2764 29.679 35.3195 30.0937 35.2005C30.3155 35.1389 30.4695 34.9952 30.5516 34.8248C30.5947 34.7406 30.6193 34.642 30.6275 34.5476C30.6358 34.447 30.6255 34.3485 30.5988 34.2581C30.5454 34.0672 30.4161 33.8947 30.221 33.7982C29.909 33.6443 29.5764 33.6586 29.2807 33.673C28.673 33.6997 28.1762 33.7223 27.9524 32.7614L27.9463 32.7122C27.9586 31.93 28.6135 31.7965 29.4368 31.8109C29.6462 31.8129 29.8597 31.8273 30.0753 31.8396C31.0587 31.8971 32.1037 31.9567 32.155 31.1087C32.192 30.4846 31.8635 30.3327 31.3789 30.304C31.1818 30.2916 30.9663 30.2978 30.7404 30.3019L29.7242 30.3101C28.866 30.2937 28.5149 30.1171 28.5375 28.9879L28.5868 28.8607L28.9646 28.4254H29.0549C29.3526 28.4254 29.6831 28.4377 30.0034 28.448C31.3133 28.4932 32.5697 28.5363 32.695 27.7746C32.7976 27.1546 32.3398 26.8959 31.7423 26.7994C31.2044 26.7111 30.5495 26.7419 30.0383 26.7686L29.3998 26.7891L29.3403 26.6988C28.8147 25.9145 28.903 25.4793 29.2664 25.2391C29.6154 25.0071 30.219 25.0153 30.7096 25.0235L31.0299 25.0297C31.2886 25.0358 31.6397 25.044 31.9538 24.9866C32.4034 24.9065 32.7915 24.6807 32.6806 24.0565C32.541 23.2702 31.5021 23.3277 30.4284 23.3852C29.2232 23.4509 27.9832 23.5207 27.5787 22.5024C27.2831 21.753 27.6773 20.9051 28.0284 20.1557L28.5067 19.0902C29.1144 17.7311 29.9049 15.9675 29.5949 14.7891C29.5107 14.4626 29.2746 14.1403 28.9605 13.9063C28.6874 13.6989 28.361 13.5531 28.0284 13.5223C27.7327 13.9945 27.4946 14.6022 27.2564 15.2017L26.9444 15.9716C26.8171 16.2632 26.7062 16.5506 26.5974 16.8298C26.1827 17.9035 25.8193 18.8418 24.7764 19.6219C24.4663 19.856 24.2487 19.9689 24.0147 20.09C23.5712 20.32 23.06 20.591 21.6455 21.8516L21.5346 21.9727C20.8468 22.72 20.5039 23.0978 20.3418 23.4591C20.1857 23.8122 20.1857 24.2023 20.1857 24.9825V25.1138C20.1878 27.134 20.157 28.7642 20.1344 30.0761C20.0893 32.628 20.0626 33.9769 20.3315 34.6523C20.5963 35.3236 21.2574 35.3031 22.6555 35.26L22.6576 35.2621L22.6514 35.2662ZM20.3295 20.6526C20.7195 20.2502 21.1137 19.8888 21.3683 19.741C21.5182 19.5768 21.7091 19.4146 21.8775 19.2688C22.0047 19.1703 22.13 19.0861 22.2675 18.9978L22.4318 18.8911C22.8383 18.6242 23.138 18.4456 23.3782 18.308C24.1563 17.8543 24.2138 17.8214 24.9673 16.0291C25.1356 15.6288 25.2876 15.2284 25.4395 14.8363C25.6325 14.3354 25.8234 13.8385 26.039 13.354C26.3264 12.7052 26.6836 12.2823 27.0737 12.0277C27.4207 11.7998 27.7943 11.7075 28.168 11.7095C28.5314 11.7116 28.8968 11.8081 29.2356 11.96C29.9706 12.2864 30.605 12.8797 30.9088 13.3437C31.2106 13.8036 31.3892 14.2697 31.4631 14.787C31.535 15.2962 31.5001 15.8546 31.381 16.5054C31.1962 17.5053 30.5844 18.8829 30.0835 20.0202C29.7858 20.6936 29.5271 21.2788 29.4203 21.6278L31.6705 21.6257C32.1529 21.6237 32.5245 21.6668 32.8428 21.7653C33.1692 21.87 33.4361 22.0343 33.7009 22.2765C35.1504 23.5946 34.2327 25.428 33.9535 25.9761L33.9371 26.0069L34.0335 26.1424C34.3743 26.6228 34.5653 26.8918 34.477 27.9655C34.4483 28.3207 34.3312 28.6595 34.167 28.9489C34.013 29.2158 33.818 29.4458 33.6045 29.6162L33.7153 29.8625C33.82 30.0843 33.9391 30.3368 33.9966 30.6694C34.1054 31.3079 33.935 31.971 33.5798 32.5048C33.2698 32.9709 32.8181 33.3425 32.2823 33.5272C32.3808 33.788 32.4424 34.0446 32.4588 34.2951C32.502 34.8597 32.3541 35.3893 32.0749 35.8328C31.7998 36.2722 31.3933 36.6335 30.9252 36.8593C30.6296 37.001 30.3093 37.0913 29.9788 37.118C28.7962 37.2083 27.3303 37.1776 25.9425 37.1468C25.2999 37.1324 24.6716 37.118 24.068 37.118L21.5674 37.1201C20.6579 37.1201 20.3726 36.9805 20.0769 36.8388C19.9743 36.7875 19.8696 36.7361 19.7279 36.693C19.4035 37.1447 19.0709 37.4198 18.648 37.5841C18.1984 37.7565 17.6626 37.8037 16.9235 37.7996C15.0798 37.7935 14.0964 37.5553 13.5626 36.9127C13.0288 36.2701 12.9775 35.2764 12.9775 33.7387V29.9939C12.9775 29.068 12.9467 28.216 12.9138 27.4297C12.8892 26.7091 12.8625 26.0398 12.8666 25.43C12.881 22.8842 13.3717 21.3814 16.1248 21.3958C18.3503 21.4081 18.533 21.5374 18.802 21.7284C18.8861 21.7879 18.9847 21.8557 19.2229 21.9337C19.461 21.6093 19.9024 21.1001 20.3377 20.6526H20.3295Z" fill="#FEA44E"/>
</svg>
