<svg width="56" height="55" viewBox="0 0 56 55" fill="none" xmlns="http://www.w3.org/2000/svg">
<path fill-rule="evenodd" clip-rule="evenodd" d="M11.8039 7.25248C12.6847 7.64256 14.013 9.00373 14.8691 9.69766C16.22 10.7878 17.2671 9.60938 18.698 8.9483C23.5699 6.69405 22.8226 9.15771 23.301 2.41961L30.9835 2.41345C31.8191 9.16797 30.2013 6.46 35.5577 8.91134C36.7998 9.47798 38.2389 10.7632 39.3948 9.73872C40.0353 9.17003 41.8112 7.55223 42.4621 7.20115L47.7877 12.5925C47.4961 13.2248 45.8701 14.9186 45.2706 15.6145C44.2297 16.8258 45.5232 18.1706 46.1062 19.4517C48.3933 24.4755 45.9296 23.4366 52.6041 24.0341L52.5528 31.7186C45.9379 32.2976 48.3748 31.267 46.0754 36.3154C45.4205 37.7566 44.2667 38.7873 45.3137 40.1382C45.9912 41.0107 47.377 42.3226 47.7671 43.2054L42.421 48.5023C38.8856 46.2378 39.7418 44.6446 36.9065 46.17C36.1079 46.5991 34.293 47.1309 35.1778 48.5516C35.9272 49.7526 37.5081 48.4428 38.3293 48.2087L40.4213 50.0482C41.454 50.9618 41.996 51.5675 42.8829 51.3191C43.3674 51.1815 50.5285 44.1519 50.6599 43.4826C50.898 42.3041 48.0895 40.0643 47.531 38.8797C48.1367 37.2988 48.8306 36.2148 49.3315 34.404C56.121 33.7224 55.0021 34.9871 55.0021 27.8096C55.0021 20.9217 56.1251 21.8887 49.389 21.3405C48.7629 19.5749 48.1716 18.3266 47.4961 16.7704C47.7733 16.3803 48.1018 16.0785 48.4241 15.6515C49.311 14.4669 50.9411 13.2474 50.6229 12.1716C50.4936 11.7343 43.2627 4.51577 42.8357 4.38437C41.6675 4.02098 39.9963 6.37994 38.2718 7.45779C37.5286 7.2648 36.7115 6.77001 35.9334 6.45385C35.184 6.14794 34.3443 5.91595 33.6688 5.60594C33.3137 -0.109746 33.5477 0.00522486 30.8357 0.00522486C28.179 0.011384 25.5244 -0.00709342 22.8678 0.00317181C20.5273 0.00933096 21.0241 1.28017 20.6238 5.67574C18.7042 6.21569 16.7107 7.34076 15.8505 7.48242C15.5507 7.02665 14.2819 6.00833 13.7851 5.59978C11.2516 3.51388 11.7895 3.8321 7.42065 8.20099C6.75751 8.86412 3.80523 11.5269 3.67384 12.2701C3.5486 12.9949 3.86066 13.2843 4.17682 13.6416L6.77188 16.7376C6.51935 17.6799 5.25262 19.2998 6.56657 19.9136C8.04271 20.6034 8.43281 18.846 8.91938 17.9981C10.4243 15.3825 7.90516 15.0766 6.54399 12.5863C6.91149 12.034 7.47813 11.5762 7.90927 11.1143L11.8101 7.25043H11.808L11.8039 7.25248ZM25.2699 13.892C35.9149 12.4077 44.2975 22.8207 40.1175 33.4678C39.2018 35.8001 37.5881 37.5041 36.0956 38.7791C36.0442 38.8222 33.5457 40.3825 35.1881 41.4357C36.1387 42.0455 37.311 40.9389 38.1096 40.2716C41.6203 37.3419 43.7534 32.2771 43.659 27.4606C43.39 13.851 27.4707 6.5216 16.994 14.8364C16.2898 15.3949 12.2802 18.6264 13.7338 19.9998C15.834 21.9851 16.3925 15.1321 25.2699 13.892Z" fill="#16A16C"/>
<path fill-rule="evenodd" clip-rule="evenodd" d="M26.9533 44.6775C26.364 45.6938 23.2619 48.5106 22.2744 49.5227C20.6668 51.1734 17.3286 53.635 18.8848 54.8011C20.2357 55.8112 22.5043 52.7521 24.1878 51.0953C24.8181 50.4774 28.3144 46.7675 28.8585 46.5355C28.8359 47.9521 28.7702 49.7875 28.8503 51.1754C28.9612 53.1381 31.0101 52.9472 31.2257 51.5142C31.4227 50.1941 31.5172 43.2363 30.9013 42.608C30.2956 41.988 22.0999 42.2754 21.8515 42.337C20.5519 42.6573 20.4923 44.5831 22.3606 44.6878C23.7977 44.7678 25.4833 44.6734 26.9512 44.6796V44.6816L26.9533 44.6775ZM6.1867 28.5919C5.35932 29.4193 4.67361 30.1009 3.85444 30.9283C2.14631 32.6549 -0.959954 34.944 0.288298 36.2169C1.41542 37.3666 2.89567 35.3526 3.34118 34.9112C4.50936 33.7553 9.82471 28.21 10.3277 28.0622C10.4016 29.565 10.2497 31.1952 10.3421 32.6651C10.4652 34.6545 12.4978 34.4287 12.7175 33.008C12.9187 31.7084 13.0069 24.6973 12.3992 24.0978C11.8634 23.5701 4.52579 23.5373 3.34323 23.8247C2.15863 24.1142 1.79728 26.0995 4.00636 26.1755C5.46197 26.2247 6.97917 26.1118 8.44505 26.1816C8.28081 26.7298 6.70817 28.0684 6.18053 28.5939L6.18259 28.5919H6.1867ZM5.94854 49.0649C7.1352 50.2577 8.77353 47.9727 9.30937 47.4573C10.3195 46.4862 11.1633 45.5767 12.159 44.6016C14.093 42.7004 15.8422 40.8486 17.7885 38.9885C18.8951 37.9333 28.3576 28.2306 29.1685 27.7235C29.1336 29.8237 29.1685 31.9384 29.1603 34.0407C29.1582 35.0713 29.0371 36.0937 29.7146 36.5598C30.5071 37.1038 31.3714 36.5906 31.5295 35.7632C31.743 34.6299 31.5644 30.9385 31.5644 29.5445C31.5644 28.2675 31.9052 24.3154 31.1148 23.7118C30.4701 23.2191 19.2975 23.4346 18.9669 23.5537C18.2832 23.8083 17.9301 24.8471 18.5892 25.5205C19.2749 26.2206 24.9639 25.6745 27.3249 25.9127L10.3318 42.9509C9.33609 43.9405 8.4738 44.8151 7.47807 45.8046C6.97918 46.2994 4.77627 47.8987 5.94445 49.071L5.94648 49.069L5.94854 49.0649Z" fill="#FEA44E"/>
</svg>
