<svg width="54" height="58" viewBox="0 0 54 58" fill="none" xmlns="http://www.w3.org/2000/svg">
<path fill-rule="evenodd" clip-rule="evenodd" d="M28.016 42.9016C28.3117 42.5628 36.1646 37.5821 36.7271 37.4281C37.8624 37.1181 38.2156 38.3397 37.6941 39.1609C37.2629 39.8405 36.489 40.2285 35.8895 41.0333L32.4486 44.7226C29.8638 47.2622 28.4451 49.7567 24.3123 50.8653C20.2473 51.9555 16.2562 50.1632 11.7621 50.7483C11.2632 49.3009 8.22055 45.0449 7.3829 43.2773C7.93107 42.378 9.92868 40.4297 11.1236 39.6618C14.8786 37.2516 16.6976 39.4791 21.824 41.3104C23.2961 41.836 26.1436 42.4601 26.8766 43.4887C27.1948 45.4247 26.3428 46.0078 24.8338 45.5028C22.8136 44.8273 15.1229 41.7149 15.7162 45.2277C16.6996 45.6034 17.8021 44.7862 19.8346 45.4514C21.0254 45.8415 22.2901 46.1967 23.4891 46.6155C24.7209 47.0467 26.1026 47.6831 27.2194 46.7757C28.2542 45.9339 28.3958 44.5933 28.014 42.9016V42.9036L28.016 42.9016ZM26.0903 14.5633C25.1787 15.2265 17.874 20.0224 17.293 20.1271C16.0016 20.355 15.8846 18.9856 16.482 18.1582L23.5814 10.8104C26.8951 6.81515 31.6971 5.90359 36.3966 6.64885C38.9362 7.05125 39.8826 7.00608 42.3545 6.60574C42.8452 7.74312 43.8902 9.33834 44.5554 10.4716C45.2904 11.7281 46.0828 12.9599 46.6248 14.1733C43.9764 17.4787 42.3381 20.4125 36.3986 17.9735L27.9544 14.6496C26.8971 13.9782 26.8129 12.7238 27.7861 12.0915C28.7941 11.5618 32.118 13.0544 33.3806 13.3911C34.401 13.6621 39.3406 14.4566 38.2546 12.344C37.7187 11.6829 37.0638 12.7731 34.1711 12.0668C31.342 11.375 28.3979 9.58881 26.8212 11.0198C25.8829 11.8677 25.653 13.0092 26.0903 14.5695V14.5633ZM41.4676 5.33285C37.7967 5.78246 34.9697 4.48083 31.3009 5.03926C27.4535 5.62643 24.8256 7.18059 22.2367 10.2971C21.2225 11.5166 15.7532 16.6061 15.1311 17.84C14.2442 19.5974 15.2974 21.4472 16.8474 21.6566C18.2435 21.8455 19.5677 20.4761 20.6209 19.8068C21.8733 19.0082 22.9347 18.3204 24.1789 17.4889C27.5726 15.2162 26.1868 15.5632 32.0749 17.7805C34.6227 18.7392 37.9384 20.5562 40.7285 20.3345C43.6623 20.1004 44.8366 18.1582 46.7172 16.3084C47.0396 15.9902 47.1668 15.7829 47.4112 15.4934C48.5321 16.6246 48.6779 17.5444 50.6139 16.2427C51.5193 15.635 53.0878 14.6455 53.6114 13.892C54.9766 11.9313 52.3713 8.99343 50.9588 6.42917C50.3018 5.23841 49.5977 4.14824 48.9304 2.98211C46.5571 -1.15889 46.4298 -0.442373 43.1039 1.84267C41.6955 2.80965 41.1083 2.89793 41.4635 5.3349L41.4614 5.33285H41.4676ZM6.57811 41.8114C4.82686 39.5387 3.13104 41.3002 1.38595 42.7168C0.618114 43.3409 -0.377614 43.8254 0.145913 45.7122C0.330687 46.3835 1.3141 47.9418 1.66517 48.5351C2.79434 50.4527 3.86193 52.1834 4.93978 54.0701C6.84295 57.4104 7.60053 58.981 11.8996 54.7887C13.3675 53.3557 12.0331 52.3004 13.0698 52.0602C17.8288 50.9557 22.1648 56.0924 30.609 48.7938C31.1469 48.3278 31.11 48.1861 31.5698 47.6359C33.2513 45.6259 39.4269 40.4933 39.2955 38.1775C39.2174 36.7978 38.4168 35.9274 37.1603 35.8924C35.5404 35.8493 31.2804 39.165 29.2294 40.4071C28.2029 41.0292 27.5171 41.8607 26.427 41.4028C25.4087 40.9737 24.4704 40.6617 23.4254 40.2901C21.4278 39.5797 19.4856 38.738 17.5475 37.9537C11.0538 35.3279 8.7297 40.3044 6.58221 41.8134L6.58016 41.8114H6.57811Z" fill="#16A16C"/>
<path fill-rule="evenodd" clip-rule="evenodd" d="M29.2024 24.0175L28.6665 24.9229H27.5517C27.6667 25.0686 27.7611 25.2411 27.835 25.4279C27.909 25.6168 27.9623 25.8344 27.9952 26.0808H29.2003L28.6645 26.9862H27.9952C27.9521 27.2839 27.8679 27.559 27.7406 27.8115C27.6154 28.062 27.447 28.2796 27.2397 28.4603C27.0323 28.643 26.788 28.7826 26.5047 28.8873C26.2193 28.9899 25.9011 29.0392 25.548 29.0392L28.8061 33.0283H27.3793L24.2299 29.1378V28.2324H25.0183C25.2646 28.2324 25.4925 28.2057 25.704 28.1523C25.9155 28.0989 26.1023 28.0209 26.2665 27.9121C26.4308 27.8053 26.5683 27.676 26.6771 27.522C26.788 27.3701 26.864 27.1915 26.905 26.9841H23.9651L24.5009 26.0787H26.9009C26.8188 25.7256 26.6422 25.4443 26.3733 25.2349C26.1043 25.0255 25.7368 24.9208 25.2728 24.9208H23.9651L24.5009 24.0154H29.1983L29.2003 24.0175H29.2024ZM15.1862 35.2148C16.1347 35.1224 16.0177 34.7467 16.0321 33.6257C16.0465 32.5397 16.223 26.0212 15.8329 25.4608C15.449 24.9126 14.9583 25.2 14.7961 25.6619L14.7243 31.7574C14.6771 33.0755 14.4533 34.5968 15.1862 35.2168V35.2148ZM38.3241 23.381C37.8313 24.2967 38.0428 29.8933 38.0654 31.5604C38.0756 32.3241 38.1147 33.6709 39.0324 33.1042C39.7756 32.6464 39.4142 26.9554 39.4224 24.929C39.4266 23.7998 39.443 23.0669 38.3241 23.381ZM25.0881 22.1738C32.0479 20.1659 35.109 31.6302 28.1102 34.1677C20.9348 36.7689 18.2658 24.1406 25.0881 22.1738ZM33.1894 29.8953C34.0168 25.3725 31.2164 21.4368 28.1389 20.6402C23.9712 19.5603 20.8711 22.7158 20.0191 26.2984C18.8817 31.0717 21.836 34.915 25.0778 35.7157C29.1244 36.7135 32.5078 33.6216 33.1894 29.8953ZM24.8438 19.9791C29.2804 18.505 33.0046 22.4346 33.8217 26.2943C35.3615 33.558 28.2806 39.598 22.4294 35.2415C17.5842 31.6343 17.5965 22.3935 24.8438 19.9812V19.9791ZM24.8787 18.4311C16.0773 20.5848 16.338 32.2933 21.3721 36.2475C23.0864 37.5943 25.7266 38.6105 28.3298 37.9474C36.2423 35.9313 37.4207 24.6744 31.8652 20.2727C30.1201 18.891 27.4778 17.7947 24.8766 18.4311H24.8787Z" fill="#FEA44E"/>
</svg>
