<svg width="68" height="55" viewBox="0 0 68 55" fill="none" xmlns="http://www.w3.org/2000/svg">
<path fill-rule="evenodd" clip-rule="evenodd" d="M59.3269 25.8821L57.0111 25.88C57.0604 26.3338 57.0953 26.7936 57.1179 27.2556C57.8467 28.5182 58.9019 30.2366 59.1852 30.7068L61.6859 34.9422C61.8583 35.2337 61.8727 35.3939 62.156 35.5458C62.5687 35.4103 63.4556 33.6816 63.7184 33.2279C64.2378 32.3287 67.8881 26.2599 67.9949 25.8862L64.9646 25.8739C64.7367 20.9219 61.807 14.8757 58.8383 11.0919C55.7792 7.19321 51.396 3.89807 46.7233 2.0647C43.1592 0.668626 38.8703 -0.251139 34.5569 0.0609246C35.6327 0.440738 39.205 0.200532 44.4813 2.78326C47.4295 4.2245 48.8256 5.31672 51.0839 7.26507C53.3197 9.19698 55.5657 12.2868 57.0768 15.5019C58.5344 18.6082 59.2858 21.9731 59.3289 25.8739L59.3269 25.88V25.8821ZM4.6974 36.0714C4.85138 36.5682 5.27225 37.5393 5.46318 37.8575C6.18585 39.8941 8.4052 43.0148 9.77869 44.6572C10.1811 45.1376 10.6348 45.7207 11.1173 46.1272L12.5318 47.5294C18.3399 52.4957 25.2792 55.3577 33.3723 54.9676C32.7564 54.6925 31.4466 54.6638 30.6767 54.5365C26.0922 53.7666 21.7562 51.7012 18.19 48.8557L16.0856 46.9299C14.782 45.501 14.5582 45.4353 13.2278 43.5157C11.378 40.8488 10.0805 38.11 9.32086 34.8129C9.05602 33.659 8.47088 30.2284 8.73572 29.1382L11.5833 29.1403L11.5792 29.0233C10.9612 27.6949 6.2885 20.2465 5.87379 19.2446C5.71981 19.3657 5.78552 19.2795 5.62949 19.5033C5.54737 19.6182 5.51656 19.7045 5.46112 19.803C5.33589 20.0309 5.24762 20.1664 5.11623 20.3922C4.26832 21.8622 0.281267 28.4197 0 29.1547L3.00158 29.1403C3.44914 30.9121 3.43889 32.1131 4.14103 34.3981C4.31349 34.9566 4.58243 35.5519 4.70151 36.0673V36.0693L4.6974 36.0714ZM35.9776 30.7704L36.8933 31.7497C37.2403 32.033 37.5769 32.2568 37.9568 32.5648L40.0221 34.2524C40.6442 34.7513 43.9455 37.5372 44.239 37.4572C44.3376 37.2375 42.8677 35.5458 42.7404 35.3939L38.4515 30.3105C38.238 30.0785 38.162 30.0662 37.9793 29.8465C37.696 29.5078 37.7843 29.5447 37.4209 29.3517L37.1088 29.7233C36.6859 30.2879 36.5073 30.3105 36.1336 30.6226L35.9796 30.7683H35.9817L35.9776 30.7704ZM32.3334 24.3423C32.9329 24.2622 33.245 23.9522 34.1073 23.9461C35.0271 23.9399 35.3597 24.2581 35.9571 24.332C35.9797 23.3219 34.9573 18.7252 34.5774 17.2121C34.329 16.2225 34.0806 15.7298 33.7418 17.0663C33.2183 19.1296 33.0767 20.2916 32.6804 22.24C32.5224 23.0263 32.3232 23.4513 32.3294 24.3403H32.3314L32.3334 24.3423ZM33.5406 25.258C30.4056 26.0771 31.6416 30.7211 34.7971 29.8753C35.8975 29.5796 36.9097 28.3807 36.5073 26.9394C36.2014 25.841 35.0147 24.8761 33.5386 25.26H33.5406V25.258Z" fill="#16A16C"/>
<path fill-rule="evenodd" clip-rule="evenodd" d="M57.011 25.8801H56.3951C56.4279 26.0299 56.7256 26.5781 57.1177 27.2556C57.0972 26.7937 57.0603 26.3338 57.011 25.8801ZM11.5832 29.1403L11.5791 29.0233C11.5996 29.0685 11.6181 29.1095 11.6284 29.1403H11.5832ZM32.4216 47.357L35.8605 47.3796L35.8667 43.4151L32.4155 43.3659L32.4216 47.3549V47.357ZM32.4216 11.7346L35.8728 11.7572L35.8667 7.79067L32.4257 7.74756L32.4237 11.7346H32.4216ZM13.9134 29.2573L17.9682 29.2512L18.0113 25.8739L13.936 25.8821L13.9134 29.2573ZM15.7899 19.0742L17.5083 20.111C17.9435 20.3656 18.853 20.9363 19.3191 21.0718L20.9964 18.2448C20.826 18.0354 17.7649 16.3149 17.459 16.2349L15.7899 19.0742ZM40.7508 13.0691L43.6785 14.6951L45.7315 11.2891C45.4975 11.0406 43.0585 9.661 42.7156 9.58298C42.5021 10.1353 42.0607 10.7594 41.7281 11.324C41.4612 11.7756 40.9048 12.601 40.7488 13.0691H40.7508ZM50.3283 29.2594L54.3522 29.2471L54.3851 25.8821H50.3201C50.2256 26.3605 50.2215 28.8077 50.3283 29.2594ZM40.7508 42.0724C40.9027 42.5077 41.4899 43.3967 41.7322 43.8155L42.6417 45.3347C42.654 45.3512 42.6704 45.3717 42.6828 45.3902L42.7751 45.4908C42.7833 45.5031 42.808 45.5216 42.8244 45.54L45.7438 43.8997C45.442 43.3474 43.9905 40.738 43.6785 40.4505L40.7508 42.0766V42.0745V42.0724ZM22.5813 43.8586L25.47 45.5503C25.7718 45.2526 27.3629 42.5488 27.5292 42.093C27.1494 41.7973 26.5478 41.514 26.127 41.2738C25.6301 40.9884 25.1107 40.662 24.6283 40.4403C24.3716 40.6497 22.7969 43.4131 22.5793 43.8545V43.8565L22.5813 43.8586ZM15.8002 36.0632L17.4631 38.9025C17.8101 38.7794 20.7829 37.1226 21.0005 36.8988L19.3457 34.0307C19.1466 34.0902 16.2806 35.63 15.8987 35.9626C15.8843 35.9749 15.8618 35.9995 15.8494 36.0119C15.8371 36.0201 15.8166 36.0427 15.8022 36.0632H15.8002ZM22.5855 11.2809C22.7353 11.6237 24.4312 14.5267 24.6303 14.6889L27.5374 13.0608C27.4779 12.8658 25.936 10.1311 25.5768 9.69795C25.5644 9.68358 25.5398 9.65689 25.5295 9.64663C25.5213 9.63431 25.5008 9.61173 25.4823 9.5953C25.1087 9.74723 22.7394 11.0776 22.5834 11.2809H22.5855ZM47.2877 36.8865C47.4971 37.1061 50.3796 38.7075 50.7882 38.8984C50.9873 38.7239 52.3259 36.4163 52.4943 36.0632C52.211 35.7285 49.1293 34.0923 48.9528 34.0307L47.2877 36.8865ZM47.3021 18.2427L48.9651 21.0985C49.5112 20.9014 51.3117 19.8051 52.0467 19.3863C52.1001 19.3575 52.2623 19.261 52.2828 19.2467L52.4471 19.1214C52.4594 19.1132 52.482 19.0927 52.5004 19.0763C52.3259 18.6924 51.0079 16.4319 50.7882 16.2328C50.2913 16.473 47.5567 17.945 47.3021 18.2407V18.2427Z" fill="#FEA44E"/>
</svg>
