<svg width="62" height="54" viewBox="0 0 62 54" fill="none" xmlns="http://www.w3.org/2000/svg">
<path fill-rule="evenodd" clip-rule="evenodd" d="M52.5746 29.0745C52.9511 28.8205 53.7628 28.9385 54.2339 28.9418L59.6712 28.9778C59.8831 29.6348 59.9157 49.5436 59.6875 50.3841L52.4606 50.4463C52.4182 50.1777 52.2438 31.1977 52.397 29.6561L52.573 29.0728L52.5746 29.0745ZM48.4037 18.2616C51.4027 17.4408 49.7207 13.2942 47.2856 14.0019C44.3307 14.8588 45.7943 18.9742 48.4037 18.2616ZM50.7883 12.593C53.9682 15.3159 51.701 18.5303 53.5786 18.894C56.061 19.374 54.6658 14.1789 53.8248 12.7961C53.0408 11.5052 51.9716 10.5189 50.8258 9.84717C46.2621 7.17672 45.5042 10.6205 47.6295 11.0661C48.8634 11.3249 49.5251 11.5117 50.7883 12.593ZM56.1017 7.08169C51.6456 2.91709 45.822 2.63366 47.3003 5.1026C47.817 5.96764 49.5479 5.53348 52.2487 6.98831C55.8752 8.94282 58.0217 12.7748 58.1244 16.8018C58.144 17.5604 57.7039 18.7563 58.5449 19.3461C59.619 20.0981 60.2955 18.8956 60.3362 17.9388C60.4796 14.5868 59.6549 10.4026 56.1017 7.08005V7.08169ZM26.0433 15.2569C28.7147 16.9214 28.2012 13.8594 28.2045 11.9606C28.2061 10.9645 28.3072 5.97583 28.11 5.42371C27.8427 4.675 26.5665 4.44564 26.1329 5.27299C25.8004 5.90866 25.9601 14.4459 26.0433 15.2569ZM23.1486 6.69013C20.4316 7.82713 18.0161 11.5346 18.7446 15.7762C19.3363 19.22 22.1935 21.9937 25.5934 22.5785C33.9727 24.0235 38.776 13.8561 33.0697 8.14005C30.1376 5.2009 29.1987 7.20784 29.6323 8.181C29.9746 8.9461 31.7593 9.11321 32.8432 11.7607C34.5317 15.8795 31.8098 19.5165 28.5403 20.298C22.244 21.8036 18.3518 13.9987 22.6433 9.7669C22.9481 9.46708 24.3645 8.50211 24.5047 8.2449C24.9952 7.34219 24.1656 6.26581 23.147 6.69177L23.1486 6.69013ZM9.36785 44.7532C8.71916 41.8927 12.0474 42.2711 13.0335 42.2711C14.8867 42.2711 17.4782 41.8189 17.915 43.7047C18.4773 46.1261 16.1384 46.1883 14.2592 46.1867C12.4109 46.1851 9.78836 46.6078 9.36785 44.7532ZM20.4006 38.7487C19.6932 40.6033 16.2623 40.0184 14.1059 40.0184C13.2584 40.0184 11.2308 40.1151 10.5283 39.8693C9.6433 39.5581 9.00275 38.4375 9.43956 37.2857C10.1029 35.5278 13.8517 36.0947 15.7913 36.0947C16.7985 36.0947 18.5132 35.9276 19.3444 36.2618C20.1626 36.5911 20.839 37.5986 20.4006 38.7487ZM9.37438 32.4363C9.11523 31.4189 9.6107 30.6161 10.217 30.2213C10.926 29.7593 12.1256 29.928 13.0351 29.9297C14.8997 29.933 17.5238 29.4939 17.928 31.3812C18.5393 34.227 15.2045 33.8436 14.2608 33.8436C12.4255 33.842 9.84542 34.2843 9.37601 32.4363H9.37438ZM50.2374 32.2659L50.2406 47.6907C47.2498 47.7529 44.4839 47.1255 42.8393 49.1553C42.0341 50.1498 42.233 50.9427 40.6243 51.3867C39.1248 51.8012 25.7075 51.7766 23.1518 51.6587C22.1462 51.6128 20.3256 51.3179 19.6916 50.4545C23.1339 50.4168 26.5909 50.4463 30.0349 50.4463C33.1463 50.4463 37.151 50.9903 39.4883 49.4863C42.083 47.8168 42.352 45.8443 42.352 41.8304V36.596C42.352 34.8577 42.5443 33.1506 41.5876 32.0677C38.8314 28.95 30.0137 34.5399 30.8563 27.2215C30.9949 26.0206 32.8464 26.4384 35.244 26.4384H40.4515C42.1841 26.4384 43.8824 26.1484 44.8539 27.2445C45.8872 28.4093 45.4813 32.2315 50.2374 32.2676V32.2659ZM11.7915 27.6672C9.86986 27.6328 7.91236 27.6622 5.98746 27.6704C4.18969 27.677 2.19307 27.7622 2.23218 25.6635C2.2713 23.5976 4.2728 23.7499 6.14066 23.7516C7.93191 23.7516 10.0377 23.65 11.798 23.7827L11.7915 27.6672ZM14.0456 27.6655C14.0081 21.5104 14.0424 15.3454 14.0424 9.18857C14.0424 5.95289 13.8598 3.45609 16.6567 2.50915C17.9003 2.0881 32.1635 2.29289 34.6312 2.29125C36.7761 2.28961 39.7539 2.43051 40.0962 5.812C40.2885 7.70753 40.1223 21.0221 40.1207 24.1448C32.1195 24.6985 28.3919 22.282 28.6055 28.7468C28.8434 35.921 38.4141 32.3118 39.8387 33.5209C40.4124 34.2303 40.1239 36.8974 40.1239 37.9787C40.1239 40.1085 40.5314 45.0268 39.3644 46.5881C38.7369 47.4302 37.7182 48.1068 36.3246 48.1773L17.7439 48.1494C18.2345 47.7153 18.6631 47.6071 19.0951 47.1484C21.0053 45.1152 19.9198 43.0657 19.7845 42.1351C20.9091 41.5666 21.1617 41.5175 21.8528 40.682C23.6392 38.5227 22.7395 34.8463 19.7356 34.0402C20.2311 31.8875 20.6581 30.7947 19.1554 29.0548C17.9492 27.6573 16.4025 27.6622 14.0456 27.6639V27.6655ZM11.7882 21.4923C9.51454 21.5415 7.1952 21.5038 4.91661 21.5005C-0.859726 21.4891 -0.893944 27.0299 1.48407 28.9647C3.03735 30.2295 5.14643 29.9444 7.44947 29.9395C6.83011 32.3839 6.88879 33.2718 8.29539 34.902C7.81294 35.9882 7.03058 36.2536 7.05503 38.1327C7.07947 39.93 7.85695 40.1774 8.29376 41.2144C6.94421 42.7823 6.47317 44.8597 7.92867 46.8109C9.84216 49.3798 12.4158 47.7054 13.7164 48.6917C15.0741 49.7206 14.044 49.2897 16.1009 50.1416C17.3951 50.679 17.633 53.8786 23.7582 53.913C28.6527 53.9409 34.0835 54.1113 38.9259 53.8819C41.6169 53.7541 43.0658 53.0709 44.1285 51.3736C44.9027 50.1383 44.6811 49.9663 46.5783 49.9679C47.7827 49.9679 49.0606 49.927 50.2537 49.9794C50.2309 53.0791 50.2211 52.6384 54.5468 52.6384C62.693 52.64 61.9432 53.2741 61.9416 49.5289V32.4396C61.9416 25.3915 63.2227 26.7431 53.7824 26.7464C50.076 26.7464 50.27 26.3057 50.2439 29.9919C47.3508 30.0902 48.1739 28.0948 46.9841 26.3368C45.9328 24.7837 44.8522 24.3594 42.4188 24.153C41.8939 21.4022 42.8263 8.81995 42.2803 5.20909C41.9152 2.79585 39.9723 0.777445 37.7263 0.2368C36.0557 -0.166227 21.8202 0.0713295 18.8603 0.053308C15.568 0.0320098 13.6496 1.20832 12.5412 3.30537C11.3759 5.51218 11.8045 9.35076 11.8045 12.1162C11.8045 15.2356 11.8371 18.3746 11.7915 21.494L11.7882 21.4923Z" fill="#F69133"/>
</svg>
