<svg width="66" height="55" viewBox="0 0 66 55" fill="none" xmlns="http://www.w3.org/2000/svg">
<path fill-rule="evenodd" clip-rule="evenodd" d="M8.41261 25.8766L11.2604 25.8749C11.171 26.3034 8.97805 29.979 8.55355 30.7041L6.12687 34.94C5.96016 35.2314 5.94469 35.3927 5.66971 35.5454C5.26927 35.4118 4.40825 33.6824 4.15218 33.2262C3.64691 32.3277 0.106554 26.2548 0 25.8853L2.94227 25.8732C3.16397 20.9226 6.00828 14.8723 8.8904 11.0908C11.8602 7.1914 16.112 3.8939 20.6509 2.06388C24.1122 0.669255 28.2747 -0.250089 32.4595 0.0604062C31.4163 0.440286 27.9464 0.20091 22.8249 2.78201C19.9634 4.22521 18.6075 5.31455 16.4162 7.26425C14.2456 9.19487 12.0647 12.2877 10.6004 15.5037C9.18599 18.6086 8.45558 21.9755 8.41434 25.8766H8.41261ZM22.4211 30.0172L31.5607 31.2921L25.2293 51.8646C25.4991 51.7085 25.7002 51.339 25.8789 51.0684L29.8764 45.3424C32.7774 41.0528 36.1545 36.4595 39.0676 32.1507C39.6244 31.3268 43.5394 25.8714 43.5755 25.5332L34.4909 24.2617C34.5029 23.8575 35.8297 19.7014 36.0531 18.9763L39.2858 8.42124C39.5505 7.56607 39.8203 6.66061 40.0781 5.82105C40.2775 5.17057 40.7999 3.7083 40.8532 3.13761C40.0644 4.06216 39.2944 5.39087 38.5709 6.41602C37.7545 7.57301 37.0379 8.67102 36.2542 9.78985L31.6242 16.5305C29.531 19.7569 26.8912 23.3302 24.712 26.5896C24.3322 27.1585 22.5757 29.6303 22.4211 30.0172ZM61.4371 36.064C61.2875 36.5618 60.8785 37.5332 60.6929 37.8507C59.9917 39.8888 57.8383 43.0094 56.5029 44.6521C56.1111 45.1343 55.6728 45.7154 55.2036 46.1248L53.8305 47.5263C48.1917 52.4925 41.4582 55.3564 33.6024 54.9643C34.2022 54.6903 35.4722 54.6608 36.2181 54.5324C40.6676 53.7623 44.8765 51.6963 48.3395 48.8516L50.3812 46.9244C51.6444 45.4968 51.8661 45.4309 53.1568 43.5107C54.951 40.8429 56.2108 38.1057 56.9498 34.8064C57.2076 33.6546 57.7747 30.2218 57.5186 29.1308L54.7104 29.1342C55.0404 28.2132 59.88 20.2756 60.2959 19.24C60.4471 19.3597 60.3801 19.2747 60.5331 19.4967C60.6121 19.6112 60.6448 19.6979 60.6981 19.7986C60.8201 20.0275 60.906 20.1611 61.0332 20.3866C61.8547 21.8593 65.725 28.4161 66 29.1499L63.0869 29.136C62.6521 30.9087 62.6624 32.1108 61.9802 34.3953C61.8134 34.9539 61.5505 35.5488 61.4371 36.0657V36.064Z" fill="#F69133"/>
</svg>
