<svg width="64" height="62" viewBox="0 0 64 62" fill="none" xmlns="http://www.w3.org/2000/svg">
<path fill-rule="evenodd" clip-rule="evenodd" d="M47.9424 6.7792L45.0406 5.51184C44.7499 5.47302 44.2794 5.29253 43.8796 5.14114L43.4396 4.97811L38.7761 3.5943C38.2271 3.45456 37.7107 3.33035 37.1732 3.2139C36.63 3.09745 36.0752 2.98682 35.4612 2.88396L31.9091 2.32112C31.4519 2.32112 30.9106 2.29589 30.3712 2.25901C29.6845 2.21243 28.9882 2.1445 28.4507 2.0824C27.062 1.92519 25.8053 2.01835 24.6844 2.10375C24.0703 2.15033 23.4946 2.19303 22.9456 2.19108C22.4884 2.18914 21.2948 2.30365 20.1682 2.44339C19.1448 2.57149 18.1788 2.72093 17.8804 2.82185L17.8097 2.8335C17.343 2.8335 16.4076 3.01011 15.3708 3.24884C13.8387 3.60207 12.0922 4.08727 11.2754 4.33958C10.8699 4.46573 10.4511 4.6113 10.0264 4.7588L9.2957 5.00917C7.95672 5.45944 6.72103 5.95047 5.51213 6.49584C4.33957 7.02374 3.19185 7.60211 1.99825 8.2387L2.00974 17.4479C2.0193 23.7964 2.03268 30.1506 1.99633 36.4952C1.9906 37.6267 2.10729 38.698 2.29666 39.6995C2.48603 40.7029 2.75194 41.6442 3.03886 42.5118C3.25118 43.1542 3.61844 43.9324 4.03161 44.6913C4.50025 45.5472 5.03394 46.3818 5.47771 46.9698L7.07106 48.9048L7.94715 49.7918C8.91313 50.7777 10.0876 51.6181 11.153 52.3789C11.6466 52.7322 12.119 53.0718 12.5418 53.4017L12.7216 53.5531C13.0793 53.6676 13.5995 54.0053 14.0089 54.2693L14.3436 54.4808C14.6803 54.6866 15.0017 54.8632 15.3268 55.0398L15.96 55.3891C17.0617 56.0141 19.7244 57.1611 22.1709 58.0714C24.1507 58.8089 25.9793 59.3911 26.6928 59.4105L27.4981 59.1175C30.178 58.2499 31.7714 57.7084 33.361 57.0233C34.9065 56.3576 36.4635 55.5522 39.0363 54.1722C38.7589 53.59 38.5925 53.0194 38.4605 52.5711L38.3419 52.1771C37.615 52.6312 35.9681 53.5628 34.5048 54.279C33.4451 54.7972 32.4696 55.2067 31.9761 55.2572C30.7117 55.8433 29.9504 56.1732 28.6554 56.6332C27.6435 56.9981 27.1117 57.1922 26.601 57.2193C26.0291 57.2504 25.5356 57.0796 24.4988 56.7186L23.7107 56.4488C22.9628 56.1946 22.2952 55.9559 21.6506 55.7074C21.0022 55.459 20.3614 55.1931 19.6728 54.8962C19.0435 54.6225 18.4428 54.3159 17.8537 54.015C17.1938 53.6793 16.5472 53.3474 15.8624 53.0718C15.1451 52.7069 13.4484 51.6045 12.777 51.0999C10.2808 49.2193 8.44259 47.8316 6.62541 45.0581C6.10703 44.2663 5.6441 43.4608 5.25962 42.603C4.87323 41.7432 4.56336 40.8329 4.35486 39.8334C3.90917 37.7121 3.9991 25.5742 4.04884 19.0452L4.06794 15.6468C4.06794 14.364 4.04691 13.3838 4.02969 12.6017C3.99717 11.0742 3.97995 10.2727 4.16358 9.75449C4.38355 9.13148 4.82542 8.95681 5.7474 8.59581C6.02859 8.48713 6.36143 8.35515 6.75929 8.18242C8.4158 7.46431 10.5448 6.67439 12.7025 6.0281C14.5369 5.47885 16.3961 5.02857 18.0067 4.8112C18.3778 4.76074 18.7489 4.70057 19.1353 4.63847C20.1682 4.4735 21.291 4.29106 22.2857 4.29106C22.5898 4.29106 22.8385 4.26195 23.0986 4.23283C23.4123 4.1979 23.7471 4.15908 24.2062 4.16296C25.8359 4.17073 28.3627 4.19014 30.8456 4.33958C33.3322 4.49096 35.7941 4.77627 37.3147 5.31776C37.7164 5.36628 38.2865 5.52737 38.7895 5.66905L39.3844 5.83013C40.2318 6.04363 43.4358 7.05868 45.8211 8.04268C47.3131 8.65792 48.5048 9.28093 48.6788 9.7409C48.8395 10.1621 48.7821 27.3209 48.7611 33.6441L48.7554 35.6141C48.9007 35.6044 49.0078 35.583 49.1207 35.5636C49.2699 35.5364 49.4268 35.5054 49.6544 35.4937C49.9203 35.4801 50.2206 35.484 50.5113 35.4898L50.7045 35.4918V8.14166C50.211 7.98251 49.5339 7.61376 48.9198 7.27993C48.5507 7.08003 48.2026 6.88983 47.9386 6.77144L47.9424 6.7792ZM49.4191 49.1242L49.6085 49.4677C50.1211 49.0621 50.7791 48.3478 51.4428 47.6258C52.5408 46.4322 53.6598 45.2192 54.3351 45.2192L54.3963 45.2231C54.643 45.2464 54.8649 45.4036 55.0199 45.6074C55.1691 45.8034 55.2647 46.0518 55.2647 46.2634L55.2609 46.3274C55.2073 46.9136 52.9731 49.0776 51.8159 50.1994L51.0622 50.9447C50.5036 51.5114 50.1269 51.8957 49.8093 52.08C49.0098 52.5458 48.6884 51.9927 47.7205 50.2867L47.535 49.9859C47.2021 49.4541 46.6838 48.6254 46.6838 48.0043C46.6838 47.4997 46.9649 47.1387 47.7798 47.1387C48.3364 47.1387 48.983 48.3226 49.4191 49.1242ZM24.9923 0.0192997C27.3394 -0.0447476 29.717 0.0484122 31.9283 0.331773C32.9267 0.333714 34.0706 0.537501 35.0213 0.704412L35.6257 0.809216C36.9303 1.02853 38.252 1.31577 39.5566 1.64959C40.9606 2.01059 42.3588 2.42981 43.7055 2.88396L44.3329 3.1188C44.6275 3.23137 44.9182 3.34394 45.1554 3.40798L46.4829 3.94753C47.4661 4.34152 48.4301 4.72775 49.3923 5.21683C49.8973 5.47302 50.3583 5.68651 50.7504 5.86701C52.2195 6.54436 52.7991 6.81219 52.801 8.09896L52.7933 32.1477C52.7933 33.0211 52.7761 33.7121 52.7646 34.2303C52.7474 34.9037 52.7378 35.2841 52.7818 35.4801C52.8105 35.6121 52.9253 35.6276 53.1816 35.6587L53.4226 35.6917C53.8588 35.7557 54.0634 35.8159 54.3771 35.9091L54.578 35.9673C57.5563 36.8232 59.8574 38.5525 61.4373 40.734C62.96 42.8359 63.8169 45.359 63.9738 47.9247C64.1306 50.4886 63.5855 53.1009 62.3115 55.3794C60.9974 57.7278 58.9067 59.725 56.0069 60.9535C54.8209 61.4562 53.6082 61.79 52.3496 61.9278C51.0909 62.0656 49.7864 62.0093 48.4206 61.7318C48.0151 61.6483 47.6057 61.559 47.2194 61.4445C46.833 61.332 46.4657 61.1903 46.1386 61.0059C45.0291 60.6837 43.9178 59.9986 42.9117 59.1602C41.764 58.2033 40.7463 57.0389 40.0214 55.9753L39.5852 56.2101C37.7279 57.2116 35.9279 58.182 33.82 59.0321L33.095 59.3251C31.5265 59.9617 30.3865 60.4256 28.6114 60.9399L28.1274 61.0971C27.7143 61.2388 27.3088 61.3785 26.8095 61.4038C26.7866 61.4309 26.7617 61.4484 26.7196 61.4639C26.6813 61.4795 26.6622 61.4814 26.6106 61.4892L26.4843 61.5105C26.0922 61.5726 25.3481 61.3184 24.868 61.1534L24.692 61.0932C22.8232 60.4702 20.0133 59.4649 17.4329 58.347C15.6138 57.559 13.9037 56.7108 12.7139 55.8976L12.383 55.624C12.0444 55.5192 11.4266 55.1291 10.7418 54.6478C9.53864 53.7996 8.09636 52.6506 7.66406 52.2974C6.96014 51.7229 6.3308 51.0417 5.77991 50.4439C5.51785 50.1606 5.27305 49.8947 5.05307 49.6754C3.92642 48.5594 3.1058 47.1523 2.31389 45.8015L2.28326 45.7491C1.38614 44.2139 0.823792 42.6729 0.485222 41.062C0.148565 39.4569 0.0356895 37.7878 0.0356895 35.9867V9.38573C0.0356895 9.13342 0.0261534 8.89664 0.0165892 8.67539C-0.0159288 7.86218 -0.0446342 7.19065 0.385751 6.80637C0.833352 6.40656 2.092 5.77773 3.5534 5.13144C5.80097 4.13579 8.54589 3.08192 9.49847 2.75781C10.1469 2.53849 10.7972 2.33859 11.4667 2.14645C12.1381 1.9543 12.8229 1.77381 13.5402 1.59137L14.5866 1.33712L16.1168 1.00524C16.6505 0.88879 17.3487 0.733524 17.7848 0.717997C19.9998 0.335655 22.4808 0.0891694 24.9885 0.0192997H24.9923ZM38.1086 7.64869C37.7413 7.56329 37.374 7.47402 37.0068 7.37697C35.8648 7.11496 34.5335 6.85101 33.2098 6.64528C32.0832 6.47061 30.968 6.33863 29.9963 6.28623C27.6091 6.16008 26.448 6.19501 25.0765 6.23771C24.298 6.261 23.4506 6.28817 22.3125 6.28817C21.9739 6.36386 21.8056 6.41626 21.4727 6.42791C21.3675 6.42985 21.2681 6.43179 21.117 6.4512L20.0056 6.59482C17.4826 6.97134 14.8008 7.53612 12.2223 8.31827C10.0321 8.98204 7.91271 9.80495 6.02858 10.8045L6.03816 19.0724C6.04389 22.9075 6.05155 26.7464 6.04582 30.5815C6.0439 32.4272 6.03815 34.273 6.02667 36.1187C6.01902 37.5044 6.18736 38.8261 6.52211 40.0586C6.86068 41.3026 7.36947 42.4632 8.03322 43.5152C8.84999 44.8078 9.19432 45.1513 9.52906 45.487C9.71269 45.6695 9.89632 45.8539 10.1488 46.178L11.7269 47.7268L16.1761 50.8767C16.4554 50.9912 16.6084 51.0863 16.7806 51.1911L17.1249 51.391C19.3208 52.5614 20.6617 53.0893 22.5879 53.8501L23.8733 54.3586C26.1706 55.2766 26.3179 55.2261 27.611 54.7836L28.1294 54.6089C29.0628 54.2965 31.5036 53.4774 31.7733 53.2193L31.8555 53.1688C33.5962 52.5749 34.9811 51.7695 36.3813 50.9544C36.9016 50.6516 37.4257 50.3469 37.9727 50.0499C37.967 49.7142 37.9479 49.4269 37.9268 49.1533C37.8675 48.3304 37.814 47.589 38.1793 45.8674C38.3955 44.8485 38.7532 43.8102 39.2257 42.8398C39.6809 41.9004 40.249 41.0212 40.8975 40.2856C41.0161 40.1498 41.0849 40.0586 41.15 39.9693C41.2169 39.8761 41.2857 39.783 41.4024 39.649C41.609 39.4103 42.2728 38.7931 42.8944 38.2982C43.3076 37.9702 43.7112 37.6888 43.9771 37.5879C44.1952 37.3589 44.639 37.0852 45.1287 36.8387C45.6604 36.5709 46.2591 36.3244 46.6684 36.2021V10.6938L44.1665 9.63027C43.4836 9.35468 42.7835 9.06937 42.0509 8.82483L40.8458 8.42696L39.5661 8.03103C39.0612 7.88353 38.5848 7.77096 38.1066 7.65645L38.1086 7.64869ZM45.4289 39.0746C45.0674 39.2958 44.6944 39.5229 44.2487 39.7441C44.1474 39.8684 43.935 40.0683 43.6787 40.3089C43.2541 40.7068 42.6993 41.225 42.4067 41.617C42.1561 41.9528 41.8902 42.3196 41.6358 42.7136C41.3891 43.0959 41.1557 43.4996 40.9625 43.9227C39.9162 46.2207 39.6962 48.899 40.2662 51.3794C40.8133 53.7608 42.0911 55.9617 44.0632 57.4658L46.1692 58.9098C46.4504 58.9428 46.7717 59.0651 47.1581 59.2087C47.6708 59.4028 48.3116 59.6454 49.1035 59.7657C50.1421 59.9229 51.1636 59.9423 52.1449 59.8356C54.6009 59.5697 56.8351 58.5139 58.549 56.8778C60.2629 55.2416 61.4603 53.0194 61.8448 50.4167C61.9959 49.3842 62.0227 48.2915 61.9022 47.1523C61.8027 46.2168 61.5426 45.3085 61.1964 44.4759C60.7813 43.4802 60.2419 42.5894 59.7005 41.8732C58.5108 40.3031 56.9422 39.0746 55.1403 38.3293C53.415 37.6131 51.4735 37.3375 49.4497 37.6209C47.315 37.9198 46.3987 38.4787 45.4251 39.0726L45.4289 39.0746ZM19.0549 40.5049L19.6709 40.4875C19.9654 40.4875 20.1605 40.3924 20.2734 40.2313C20.4015 40.0489 20.4551 39.7733 20.4551 39.4375V27.2879C20.4551 26.9522 20.4015 26.6766 20.2734 26.4941C20.1586 26.3311 19.9654 26.2379 19.6709 26.2379L18.9172 26.2166C18.6379 26.2049 18.3453 26.1933 18.0469 26.1933C17.2263 26.1933 16.4917 26.2845 16.4917 26.7775V39.9499C16.4917 40.439 17.3468 40.5263 18.2057 40.5263C18.5079 40.5263 18.7948 40.5147 19.0549 40.5049ZM25.1607 39.7519C25.6216 39.7383 26.1496 39.7209 26.7234 39.7209L27.9763 39.7364C29.8566 39.7655 32.965 39.8121 33.426 39.6801C33.6727 39.6102 33.843 39.4491 33.9348 39.2589C33.9826 39.1638 34.0113 39.0532 34.019 38.9445C34.0266 38.8339 34.017 38.7213 33.9883 38.6165C33.929 38.4011 33.7875 38.207 33.5694 38.0983C33.2232 37.9256 32.854 37.9411 32.525 37.9566C31.8498 37.9877 31.297 38.011 31.0483 36.9299L31.0426 36.8737C31.056 35.9925 31.7848 35.8431 32.701 35.8567C32.9363 35.8605 33.1716 35.8741 33.4107 35.8877C34.5029 35.9518 35.664 36.0197 35.7194 35.0648C35.7615 34.3603 35.3943 34.1914 34.8587 34.1604C34.6406 34.1468 34.3996 34.1526 34.149 34.1584L33.0205 34.1701C32.066 34.1507 31.6738 33.9527 31.7006 32.6815L31.7561 32.5379L32.175 32.0468H32.2764C32.6073 32.0468 32.9726 32.0604 33.3322 32.0721C34.7879 32.1245 36.1824 32.171 36.322 31.3112C36.4349 30.6126 35.926 30.3234 35.2642 30.2127C34.6674 30.1138 33.9367 30.1487 33.3724 30.1759L32.6627 30.1972L32.5958 30.0963C32.0124 29.2113 32.1099 28.7222 32.5135 28.4505C32.8999 28.1885 33.5694 28.1982 34.1165 28.2059L34.4723 28.2117C34.7592 28.2176 35.1513 28.2273 35.4976 28.1632C35.9949 28.0739 36.4272 27.8158 36.3048 27.1171C36.1498 26.2282 34.9945 26.2942 33.8028 26.3621C32.4657 26.4378 31.0847 26.5155 30.639 25.3665C30.31 24.5222 30.7499 23.5654 31.1382 22.7231L31.6681 21.5217C32.3433 19.9904 33.2213 18.0011 32.8751 16.6716C32.7794 16.3028 32.5174 15.9418 32.1711 15.674C31.8689 15.4411 31.5055 15.2781 31.1363 15.2412C30.8092 15.773 30.5414 16.4581 30.2775 17.1335L29.9293 18.003C29.7878 18.331 29.6653 18.6571 29.5448 18.9695C29.0838 20.1806 28.6784 21.2384 27.5211 22.1195C27.1768 22.3815 26.9357 22.5096 26.6756 22.6493C26.184 22.9094 25.6159 23.2141 24.0435 24.6348L23.9192 24.7726C23.156 25.6169 22.7716 26.04 22.5937 26.4475C22.4196 26.8454 22.4196 27.286 22.4215 28.1632V28.3107C22.4234 30.5893 22.3909 32.4272 22.3641 33.9061C22.3125 36.7805 22.2857 38.3041 22.5841 39.0649C22.8787 39.8198 23.6113 39.7985 25.1664 39.75L25.1607 39.7519ZM22.5822 23.2782C23.0145 22.824 23.4544 22.4184 23.7375 22.2495C23.9059 22.0632 24.1163 21.8788 24.3037 21.7158C24.4472 21.6032 24.5849 21.512 24.736 21.4111L24.9177 21.2908C25.3672 20.988 25.702 20.79 25.9679 20.6328C26.8325 20.1224 26.8956 20.0836 27.7315 18.0651C27.9189 17.6129 28.0892 17.1626 28.2556 16.7201C28.4698 16.1553 28.6802 15.5983 28.9232 15.0471C29.2426 14.3174 29.6386 13.8399 30.0709 13.5527C30.4573 13.2965 30.8724 13.1898 31.2874 13.1936C31.691 13.1975 32.0966 13.3062 32.4753 13.477C33.2921 13.8458 33.9979 14.5134 34.3346 15.0355C34.6693 15.5537 34.8682 16.0777 34.9486 16.6638C35.0289 17.2364 34.9906 17.8671 34.8587 18.6008C34.654 19.7284 33.9749 21.2811 33.4145 22.5639C33.0836 23.3209 32.7947 23.9846 32.68 24.3767L35.1781 24.3728C35.7156 24.3689 36.1288 24.4174 36.4807 24.53C36.8442 24.6465 37.1387 24.8347 37.4352 25.1064C39.0458 26.5912 38.0244 28.6581 37.7165 29.2753L37.6992 29.3103L37.8064 29.4655C38.1851 30.007 38.3955 30.3098 38.2979 31.5228C38.2654 31.9246 38.1373 32.305 37.9536 32.631C37.7834 32.9338 37.5634 33.1919 37.3301 33.3821L37.4544 33.6616C37.573 33.912 37.703 34.1953 37.7661 34.5699C37.8847 35.2899 37.6973 36.0352 37.3013 36.6388C36.957 37.1628 36.4559 37.584 35.8591 37.7917C35.97 38.0847 36.0351 38.3739 36.0561 38.6553C36.1039 39.2919 35.9375 39.8878 35.6295 40.3885C35.3235 40.8853 34.8721 41.291 34.3518 41.5433C34.0247 41.7024 33.667 41.8053 33.2997 41.8325C31.9875 41.9353 30.3559 41.9004 28.8161 41.8655C28.1007 41.8499 27.4044 41.8344 26.7311 41.8344L23.9537 41.8383C22.9437 41.8402 22.6243 41.6811 22.2972 41.52C22.1824 41.4637 22.0657 41.4055 21.9089 41.355C21.5492 41.8635 21.182 42.1741 20.7095 42.3604C20.2122 42.5564 19.6135 42.6049 18.7929 42.603C16.7442 42.5972 15.652 42.3274 15.0571 41.6015C14.4641 40.8776 14.4068 39.7558 14.4068 38.0246V33.8052C14.4068 32.761 14.3704 31.8003 14.3379 30.9134C14.3073 30.1002 14.2805 29.3471 14.2844 28.6581C14.2997 25.7877 14.8467 24.0953 17.9053 24.1108C20.3767 24.1244 20.5814 24.2699 20.8779 24.4873C20.9716 24.5552 21.0787 24.6329 21.3446 24.7183C21.6105 24.3514 22.1001 23.7789 22.5822 23.2743V23.2782ZM48.5679 55.3251C49.4421 55.6143 50.4118 55.7074 51.5576 55.7074C52.2367 55.7074 53.1395 55.4318 53.9773 55.0282C54.8247 54.6206 55.5975 54.083 55.9935 53.5686L56.2938 53.2018C56.4487 53.0194 56.5769 52.868 56.7471 52.5827L56.8523 52.4061C57.0264 52.1169 57.1565 51.8976 57.3114 51.5347C57.9044 50.1353 58.0326 48.6564 57.7475 47.2784C57.4606 45.8849 56.751 44.5923 55.6759 43.5928L54.995 43.0047C54.7979 42.8533 54.6564 42.7524 54.5034 42.6593C54.358 42.5719 54.1897 42.4865 53.9391 42.3701C51.7393 41.3376 49.6333 41.4987 47.9367 42.3759C46.8884 42.9193 45.9913 43.7364 45.3237 44.7146C44.6561 45.6928 44.2143 46.834 44.0766 48.0237C43.849 49.9665 44.4286 52.0432 46.131 53.7608C46.9114 54.5488 47.6957 55.0359 48.5622 55.3232L48.5679 55.3251ZM42.158 50.4924C42.0375 49.8132 42.0088 49.1222 42.0088 48.2605C42.0088 46.6438 42.6037 44.9786 43.5716 43.5676C44.549 42.143 45.911 40.9688 47.424 40.3574C49.2623 39.616 51.0527 39.4297 52.7149 39.7577C54.4077 40.0935 55.9648 40.963 57.2961 42.3138C59.4767 44.5263 60.2055 47.1678 59.9071 49.6404C59.7215 51.1717 59.142 52.6409 58.2697 53.9005C57.3994 55.1582 56.2345 56.214 54.8802 56.9185C52.6786 58.0675 49.9757 58.2965 47.2194 56.9961C46.3318 56.5769 45.999 56.3091 45.3582 55.7928L45.0846 55.5755C44.9545 55.4745 44.836 55.3833 44.6887 55.2397C44.3635 54.9233 44.0192 54.4983 43.7055 54.0461C43.3746 53.5687 43.0743 53.0602 42.8696 52.6235C42.4966 51.8336 42.2824 51.1737 42.1599 50.4924H42.158Z" fill="#F69133"/>
</svg>
