<svg width="68" height="62" viewBox="0 0 68 62" fill="none" xmlns="http://www.w3.org/2000/svg">
<path fill-rule="evenodd" clip-rule="evenodd" d="M18.6686 30.0099C18.9852 29.2319 21.3978 26.206 22.0851 25.0542L28.962 25.0306C29.905 22.7625 30.6313 21.2487 30.1725 18.277C29.5089 13.9624 26.1906 10.6846 22.0919 9.8305C15.2539 8.4047 8.41249 14.3785 9.98359 21.932C10.825 25.976 14.3109 29.6361 18.667 30.0099H18.6686ZM0.66704 19.0601C0.152369 19.2766 -0.773698 20.8141 1.90462 20.7904C2.6106 20.7836 5.43959 20.8834 5.88993 20.6855C6.36058 20.4775 7.31035 18.9671 4.67944 18.9739C3.85495 18.9773 1.20203 18.8352 0.66704 19.0618V19.0601ZM10.5287 10.2195C10.886 8.98652 10.0987 8.72605 8.73585 7.32562C7.82671 6.39369 6.62299 4.78692 5.85268 5.8643C5.16871 6.81991 7.70651 8.85121 8.83743 9.98272C9.47907 10.6254 9.71271 10.6728 10.5304 10.2195H10.5287ZM39.8531 19.2597C38.8051 18.7608 36.8379 18.979 35.6815 18.9773C34.725 18.9773 33.7007 18.8572 33.6669 19.8398C33.6313 20.8969 34.7792 20.7955 35.6748 20.787C37.6725 20.7667 40.3203 21.4669 39.8531 19.2614V19.2597ZM19.5118 0.0511688C18.9226 1.00508 19.1376 2.23976 19.1325 3.64019C19.1291 4.61102 18.8701 6.84697 20.4327 6.16874C21.2843 5.80003 20.9322 3.59114 20.9356 2.60678C20.939 1.05075 21.3503 -0.285408 19.5118 0.0528601V0.0511688ZM9.29115 29.4365C8.9644 29.604 5.74602 32.4674 5.702 33.2843C5.65629 34.1249 6.34873 34.431 7.04624 34.0995C7.57276 33.8492 8.98641 32.2154 9.58912 31.6386C11.9204 29.4044 9.89724 29.127 9.29115 29.4365ZM33.0997 5.66642C32.6138 5.91166 29.5834 8.77003 29.4615 9.35861C29.2837 10.2178 29.9457 10.7218 30.7126 10.4005C30.9564 10.299 34.2103 7.2512 34.3305 6.7049C34.5303 5.80003 33.8294 5.29601 33.098 5.66473L33.0997 5.66642ZM45.9783 59.6929C44.8491 60.0109 25.7928 59.8197 22.9333 59.8197C18.0422 59.8197 3.7686 59.5796 0 59.8519L0.0237019 61.8426C3.42493 62.169 8.34138 61.8866 11.9068 61.8866H44.2972C45.7819 61.8866 46.7893 62.147 47.0009 61.5145C47.3717 61.2303 49.3423 58.3855 49.7977 57.7106C50.7086 56.3576 51.638 55.1263 52.5708 53.7715C54.4602 51.0281 56.292 48.6231 58.1594 45.922C59.9777 43.2903 61.818 40.7194 63.7311 38.0522C64.6842 36.7245 65.6001 35.4137 66.5126 34.1164C68.0939 31.867 68.1125 32.5215 67.9111 28.9646C67.2152 29.5786 63.0708 35.6539 62.3343 36.6585C60.1368 39.659 47.3497 58.1318 45.9783 59.6946V59.6929ZM52.41 33.7291L62.1989 33.7444L66.9935 26.8927L57.3908 26.8352C56.9151 26.9536 52.5421 33.3317 52.41 33.7274V33.7291ZM45.0065 58.0658C45.5144 57.0865 46.708 55.61 47.4021 54.6341C47.91 53.917 49.4811 51.8806 49.752 51.1719L39.9885 51.204C39.5653 51.6015 39.0658 52.415 38.7391 52.8582L35.1296 58.0709L45.0065 58.0658ZM1.00733 58.0743L10.8622 58.0692C11.3515 57.0798 12.5366 55.676 13.2731 54.6121C14.0298 53.5212 14.9525 52.3017 15.6229 51.243L6.04907 51.1668C5.45821 51.2852 1.1597 57.687 1.00733 58.076V58.0743ZM18.2539 33.7663L28.0749 33.7427C29.0721 32.2391 32.3734 27.9075 32.861 26.8065L24.8278 26.8369C22.4711 26.8166 23.3532 26.4361 20.3904 30.5579C19.9553 31.1634 18.4452 33.1761 18.2522 33.7646L18.2539 33.7663ZM22.4203 58.0371C22.9959 57.0375 24.1235 55.6015 24.821 54.6138L27.1861 51.1719L16.9045 51.1838C16.4017 51.632 12.3013 57.3876 12.0169 58.0743L22.4203 58.0371ZM38.7492 51.1702L28.4491 51.1922C27.9124 51.725 23.8543 57.3944 23.5834 58.0709H33.9902L38.7492 51.1702ZM40.8469 33.7342L51.186 33.7376C51.8852 32.7228 55.7655 27.4932 55.9788 26.8724L46.3508 26.8234C45.2012 26.8758 45.616 26.8978 44.1956 28.8598C43.7741 29.4416 43.4846 29.8763 43.0528 30.4648C42.6042 31.0754 41.0195 33.2099 40.8486 33.7359L40.8469 33.7342ZM29.2837 33.7511L39.6296 33.7427L44.4343 26.9046C41.6747 26.7456 38.3412 26.8369 35.5139 26.8386C33.7211 26.8386 34.0969 26.7811 33.2826 27.9346C32.541 28.9849 29.4733 33.1236 29.2854 33.7511H29.2837ZM46.5539 42.015L56.353 42.0049C57.3061 40.4404 60.9698 35.8264 61.4997 34.6881L51.8801 34.6458C51.3113 34.8759 49.5742 37.5651 49.1019 38.2382C48.5923 38.9672 46.7927 41.3368 46.5539 42.0133V42.015ZM6.58913 50.2687L16.3374 50.2603C17.2025 49.0002 21.1184 43.7841 21.4621 42.8962L11.9102 42.9046C11.3668 43.0197 6.72288 49.8002 6.58913 50.2687ZM40.7114 50.2637L50.5003 50.262L55.6386 42.9503C53.9473 42.7795 49.5979 42.9233 47.3971 42.9013C45.9225 42.8877 45.8988 42.7101 45.2486 43.6877C44.4309 44.9173 40.9535 49.4129 40.7097 50.2637H40.7114ZM12.4198 42.0082L22.2053 41.9913C22.9113 41.0662 27.0608 35.3038 27.3029 34.6441L18.97 34.6425C17.6173 34.6255 17.6038 34.4581 16.9706 35.3951C16.2087 36.5249 12.6348 41.2471 12.4215 42.0082H12.4198ZM17.6004 50.2586L27.9124 50.2637C28.6302 49.1034 29.6596 47.8518 30.4807 46.6645C31.0664 45.8154 32.7323 43.6911 33.032 42.9588L22.9367 42.9046C22.4491 43.0958 22.4203 43.2243 22.1207 43.6455C21.8278 44.0581 21.7905 44.1579 21.4926 44.5689C20.7443 45.6074 17.79 49.6176 17.6004 50.2586ZM35.0162 42.0201L45.3401 42.0032C46.5658 40.1511 49.5759 36.256 50.4834 34.6746L40.0393 34.6509C39.3655 35.6082 35.1279 41.5296 35.0145 42.0201H35.0162ZM23.4412 42.0099L33.7752 42.0032L37.6132 36.5706C37.9637 36.0581 38.6985 35.1718 38.8948 34.6983C37.554 34.5224 32.5292 34.6594 30.5162 34.6475C27.9581 34.634 28.7843 34.2078 25.7911 38.5325C25.2578 39.3021 23.6393 41.2979 23.4412 42.0099ZM29.15 50.2586L39.4552 50.2654C40.5421 48.6721 43.9196 44.1884 44.6222 42.9419C42.6499 42.7913 38.5681 42.9148 36.2013 42.9046C35.0179 42.8996 34.427 42.6256 33.8311 43.4628C33.1911 44.3609 29.304 49.6852 29.15 50.2586Z" fill="#F69133"/>
</svg>
