<svg width="50" height="59" viewBox="0 0 50 59" fill="none" xmlns="http://www.w3.org/2000/svg">
<path fill-rule="evenodd" clip-rule="evenodd" d="M19.5548 8.81582C15.9827 8.93032 12.2917 8.84358 8.70609 8.84358C5.84232 8.84358 0.624353 7.82698 0.381459 11.34C0.107992 15.3109 5.22744 14.3464 8.28824 14.3464C11.9537 14.3464 15.66 14.4106 19.3153 14.3776C18.4575 15.7429 15.4222 17.5593 14.9381 19.4433C14.3419 21.754 16.6197 24.731 19.9183 21.4955C21.571 19.8752 23.0538 18.2237 24.6725 16.5444C26.366 14.7888 29.014 12.6966 28.8781 11.137C28.7287 9.42474 25.4861 6.95437 24.4381 5.89787L19.6261 1.01265C17.046 -1.41782 13.9478 0.950197 14.9313 3.65997C15.592 5.48152 18.483 7.24929 19.5548 8.81582ZM17.7577 50.9786C16.6468 47.7866 16.4685 48.6817 17.4129 45.2173C14.4914 44.0342 12.7537 43.0835 10.7783 41.3765C8.12348 39.0848 5.76758 34.5292 5.49921 30.5027C5.37861 28.6915 5.96292 26.87 5.7421 25.1837C5.31747 21.9275 0.85535 21.7991 0.247267 25.6973C-1.53282 37.1227 6.50306 48.6418 17.7577 50.9786ZM32.4077 13.7132C36.9293 14.4956 41.7515 19.2594 43.5299 24.1168C45.2692 28.872 44.0768 30.782 44.1906 33.4744C44.3265 36.6595 48.8464 37.4922 49.6617 33.3374C51.3365 24.809 46.5958 15.5382 39.7982 11.1023C37.9824 9.91743 34.6413 8.23119 32.0969 7.9276C32.3602 8.7898 33.0532 9.00665 33.1874 10.457C33.3165 11.8604 32.7033 12.5804 32.4077 13.7132ZM30.5461 44.8357C31.0659 43.6803 34.6821 41.0295 35.1153 39.3467C35.477 37.9381 34.6227 36.6144 33.6596 36.1182C33.1313 35.8459 32.3296 35.7539 31.6162 35.9899C30.5852 36.3299 28.7083 38.7465 27.8862 39.6486C26.2539 41.4372 21.2482 45.7117 21.2143 47.5524C21.1854 49.1189 24.1884 51.6222 25.6118 53.0847C27.256 54.7744 28.7745 56.2698 30.4052 57.9994C32.7543 60.4906 36.1004 57.8606 34.9963 55.2289C34.6702 54.45 33.1755 53.1246 32.6982 52.6649L30.4697 50.1633C34.0197 50.0297 37.8771 50.1667 41.4662 50.1667C44.5456 50.1667 49.7296 51.1851 49.801 47.542C49.8757 43.7584 44.527 44.8478 41.4662 44.8478C37.8584 44.8478 34.1335 44.7472 30.5444 44.8391L30.5461 44.8357Z" fill="#F69133"/>
</svg>
