<svg width="19" height="19" viewBox="0 0 19 19" fill="none" xmlns="http://www.w3.org/2000/svg">
<path d="M15.0413 7.12492C15.0413 6.39718 14.898 5.67656 14.6195 5.00421C14.341 4.33187 13.9328 3.72096 13.4182 3.20637C12.9036 2.69178 12.2927 2.28358 11.6204 2.00509C10.948 1.72659 10.2274 1.58325 9.49967 1.58325C8.77193 1.58325 8.05132 1.72659 7.37897 2.00509C6.70662 2.28358 6.09572 2.69178 5.58112 3.20637C5.06653 3.72096 4.65834 4.33187 4.37984 5.00421C4.10135 5.67656 3.95801 6.39718 3.95801 7.12492C3.95801 8.22296 4.2818 9.24421 4.8328 10.1055H4.82647L9.49967 17.4166L14.1729 10.1055H14.1673C14.7381 9.21619 15.0414 8.18165 15.0413 7.12492ZM9.49967 9.49992C8.86978 9.49992 8.26569 9.2497 7.8203 8.8043C7.3749 8.3589 7.12467 7.75481 7.12467 7.12492C7.12467 6.49503 7.3749 5.89094 7.8203 5.44554C8.26569 5.00014 8.86978 4.74992 9.49967 4.74992C10.1296 4.74992 10.7337 5.00014 11.1791 5.44554C11.6245 5.89094 11.8747 6.49503 11.8747 7.12492C11.8747 7.75481 11.6245 8.3589 11.1791 8.8043C10.7337 9.2497 10.1296 9.49992 9.49967 9.49992Z" fill="#F69133"/>
</svg>
