<svg width="33" height="33" viewBox="0 0 33 33" fill="none" xmlns="http://www.w3.org/2000/svg">
<path d="M16.1805 0.00012104C16.2446 0.000256664 16.3086 0.000392287 16.3746 0.000532021C17.294 0.0036578 18.1959 0.0194467 19.0989 0.208577C19.1602 0.221079 19.2216 0.233582 19.2848 0.246464C21.7427 0.76061 24.0357 1.74393 26.0212 3.29215C26.0768 3.33449 26.1325 3.37684 26.1898 3.42046C27.1709 4.18214 28.0904 5.08198 28.853 6.06106C28.9252 6.14941 28.9252 6.14941 28.9988 6.23953C31.178 8.96088 32.3418 12.4535 32.334 15.9239C32.3338 16.1089 32.3353 16.2938 32.3369 16.4788C32.3397 17.3204 32.2639 18.1319 32.1254 18.9617C32.1076 19.069 32.1076 19.069 32.0895 19.1785C31.6474 21.6398 30.5787 23.9797 29.0418 25.9469C28.994 26.0081 28.9463 26.0693 28.897 26.1323C28.1208 27.1001 27.2523 28.0159 26.2729 28.7788C26.214 28.8269 26.1551 28.875 26.0944 28.9246C24.0836 30.5347 21.6189 31.5737 19.0989 32.0511C19.0479 32.0614 18.997 32.0718 18.9445 32.0824C17.054 32.4518 14.874 32.383 12.9947 31.9882C12.8988 31.9685 12.8988 31.9685 12.8011 31.9484C10.4707 31.4532 8.26046 30.4419 6.38702 28.9676C6.32602 28.9199 6.26502 28.8722 6.20216 28.823C5.23391 28.0473 4.31801 27.1781 3.55517 26.1987C3.48302 26.1103 3.48302 26.1103 3.4094 26.0202C1.79922 24.0094 0.760262 21.5447 0.282813 19.0246C0.272511 18.9737 0.262209 18.9228 0.251594 18.8703C-0.0926079 17.1091 -0.0849984 14.9912 0.282813 13.2351C0.295316 13.1737 0.307819 13.1124 0.3207 13.0492C0.834846 10.5913 1.81817 8.29829 3.36638 6.31278C3.40873 6.25714 3.45107 6.20149 3.4947 6.14415C4.25638 5.16306 5.15622 4.24352 6.1353 3.48094C6.1942 3.43283 6.25309 3.38473 6.31377 3.33516C9.10203 1.10241 12.6352 -0.0133789 16.1805 0.00012104ZM14.6938 8.4524C13.7932 9.55274 13.7205 10.7336 13.738 12.0945C13.739 12.2239 13.7398 12.3532 13.7406 12.4826C13.7425 12.7964 13.7462 13.1101 13.7498 13.4239C13.1268 13.4239 12.5038 13.4239 11.8619 13.4239C11.8619 14.5038 11.8619 15.5836 11.8619 16.6962C12.4849 16.6962 13.1079 16.6962 13.7498 16.6962C13.7498 19.7697 13.7498 22.8432 13.7498 26.0099C15.0166 26.0099 16.2834 26.0099 17.5886 26.0099C17.5886 22.9364 17.5886 19.8629 17.5886 16.6962C18.44 16.6962 19.2914 16.6962 20.1687 16.6962C20.2583 16.1135 20.3367 15.5391 20.3968 14.9539C20.4052 14.8758 20.4137 14.7977 20.4224 14.7173C20.4303 14.6406 20.4383 14.564 20.4465 14.4851C20.4536 14.4171 20.4607 14.3492 20.468 14.2792C20.4873 13.9947 20.4833 13.709 20.4833 13.4239C19.5281 13.4239 18.5728 13.4239 17.5886 13.4239C17.595 13.0358 17.6015 12.6477 17.6082 12.2479C17.6098 12.1259 17.6114 12.0039 17.613 11.8782C17.615 11.7809 17.6171 11.6837 17.6193 11.5864C17.6199 11.5113 17.6199 11.5113 17.6205 11.4348C17.6279 11.1485 17.646 10.9442 17.8403 10.7179C18.1056 10.5592 18.3939 10.5704 18.695 10.566C18.7404 10.5649 18.7859 10.5637 18.8327 10.5626C19.0014 10.5587 19.1701 10.5557 19.3388 10.5527C19.7165 10.5449 20.0942 10.5371 20.4833 10.5291C20.4833 9.49075 20.4833 8.4524 20.4833 7.38259C19.9999 7.37678 19.5165 7.37178 19.033 7.36877C18.8689 7.36751 18.7049 7.3658 18.5409 7.3636C17.1652 7.34567 15.7003 7.3544 14.6938 8.4524Z" fill="#16A16C"/>
</svg>
