<svg width="32" height="32" viewBox="0 0 32 32" fill="none" xmlns="http://www.w3.org/2000/svg">
<path d="M18.5923 0.27292C18.6562 0.285423 18.7201 0.297926 18.786 0.310807C21.9261 0.938926 24.6675 2.46828 26.962 4.67802C27.012 4.72539 27.062 4.77277 27.1134 4.82158C27.4501 5.14755 27.7415 5.50643 28.0318 5.87369C28.1068 5.96702 28.1068 5.96702 28.1832 6.06223C29.7295 8.02199 30.7582 10.311 31.257 12.7527C31.2665 12.7992 31.276 12.8457 31.2858 12.8936C31.3158 13.0495 31.3421 13.2056 31.3671 13.3624C31.3839 13.4677 31.3839 13.4677 31.4011 13.5751C31.5056 14.3075 31.5181 15.0343 31.5166 15.7734C31.5165 15.869 31.5165 15.869 31.5165 15.9667C31.514 16.9859 31.4595 17.9641 31.2413 18.9631C31.2274 19.0277 31.2136 19.0923 31.1994 19.1588C30.6643 21.5973 29.581 23.9074 27.9689 25.8225C27.9419 25.8551 27.9149 25.8876 27.8872 25.9212C27.2252 26.7196 26.5239 27.4502 25.7034 28.088C25.6107 28.1623 25.6107 28.1623 25.5161 28.2382C23.0162 30.2278 19.7484 31.545 16.5287 31.5619C16.472 31.5623 16.4153 31.5628 16.357 31.5632C13.9993 31.5775 13.9993 31.5775 12.9286 31.3603C12.8647 31.3478 12.8008 31.3353 12.735 31.3224C9.59486 30.6943 6.85345 29.165 4.55894 26.9552C4.50897 26.9079 4.459 26.8605 4.40751 26.8117C4.07086 26.4857 3.77945 26.1268 3.48913 25.7596C3.43916 25.6973 3.38919 25.6351 3.3377 25.571C1.89561 23.7433 0.895063 21.6152 0.362296 19.3525C0.350316 19.3027 0.338335 19.2529 0.325992 19.2016C0.0765301 18.089 -0.0069682 16.9737 0.000448854 15.8363C0.000640248 15.7734 0.000831642 15.7106 0.00102884 15.6459C0.00556403 14.6346 0.0632387 13.6611 0.279701 12.6701C0.293522 12.6055 0.307342 12.541 0.321582 12.4744C0.983164 9.45961 2.4916 6.82708 4.62187 4.61509C4.66924 4.56512 4.71662 4.51515 4.76543 4.46366C5.0914 4.12701 5.45028 3.8356 5.81754 3.54528C5.87976 3.49531 5.94198 3.44534 6.00608 3.39385C8.04107 1.78822 10.3905 0.767932 12.9286 0.27292C12.9807 0.262435 13.0327 0.25195 13.0864 0.241148C14.8217 -0.0923809 16.8616 -0.0782043 18.5923 0.27292ZM7.41365 8.00741C6.378 9.25511 6.04871 10.7573 6.05197 12.3527C6.05165 12.4356 6.05133 12.5185 6.051 12.6039C6.05017 12.8286 6.05012 13.0533 6.05028 13.278C6.05035 13.4671 6.05004 13.6561 6.04974 13.8451C6.04904 14.2919 6.04901 14.7388 6.04939 15.1856C6.04977 15.6431 6.049 16.1007 6.04766 16.5582C6.04654 16.9541 6.04617 17.3499 6.04638 17.7458C6.04649 17.9808 6.04634 18.2159 6.04545 18.451C6.0386 20.4383 6.17897 22.3707 7.64251 23.8717C8.84706 24.9994 10.3711 25.39 11.9887 25.3931C12.0784 25.3935 12.1682 25.3939 12.258 25.3944C12.5519 25.3957 12.8459 25.3964 13.1398 25.397C13.2416 25.3972 13.3434 25.3975 13.4452 25.3978C13.9241 25.399 14.4031 25.3998 14.882 25.4004C15.4316 25.401 15.9812 25.4026 16.5308 25.4052C16.9576 25.4071 17.3843 25.408 17.8111 25.4082C18.065 25.4084 18.3189 25.4089 18.5728 25.4105C20.5678 25.4224 22.4196 25.2543 23.9414 23.8087C25.0841 22.5492 25.4603 20.9916 25.4618 19.3224C25.4621 19.2395 25.4625 19.1565 25.4628 19.071C25.4636 18.8445 25.464 18.618 25.4643 18.3914C25.4645 18.2493 25.4647 18.1072 25.465 17.9651C25.4659 17.5188 25.4665 17.0725 25.4667 16.6263C25.467 16.1142 25.4681 15.6022 25.4699 15.0902C25.4713 14.6924 25.4719 14.2947 25.472 13.8969C25.4721 13.6603 25.4724 13.4237 25.4736 13.1871C25.4826 11.2006 25.3374 9.2579 23.8784 7.76159C22.6739 6.63387 21.1499 6.24326 19.5323 6.24013C19.4425 6.23973 19.3527 6.23932 19.263 6.23888C18.969 6.23756 18.6751 6.2369 18.3812 6.23627C18.2794 6.23602 18.1776 6.23576 18.0758 6.2355C17.5968 6.2343 17.1179 6.2334 16.6389 6.23288C16.0893 6.23226 15.5398 6.23061 14.9902 6.22806C14.5634 6.22615 14.1366 6.22523 13.7098 6.22502C13.4559 6.22488 13.202 6.22433 12.9481 6.22273C10.8995 6.21048 8.88353 6.38727 7.41365 8.00741Z" fill="#16A16C"/>
<path d="M13.9635 7.94193C14.1082 7.94188 14.2529 7.94182 14.3977 7.94174C14.6989 7.94165 15.0002 7.94178 15.3014 7.94208C15.6839 7.94244 16.0663 7.94223 16.4488 7.94185C16.7471 7.94162 17.0453 7.9417 17.3436 7.94186C17.4845 7.9419 17.6253 7.94185 17.7662 7.94171C18.4418 7.94115 19.1162 7.94535 19.7911 7.97809C19.8412 7.9805 19.8912 7.9829 19.9427 7.98538C21.0235 8.04453 22.0546 8.34266 22.8019 9.16537C23.8476 10.4971 23.7726 12.117 23.7697 13.7241C23.7698 13.8921 23.7699 14.0602 23.7701 14.2282C23.7703 14.5788 23.77 14.9293 23.7694 15.2799C23.7687 15.6822 23.7689 16.0844 23.7696 16.4867C23.7702 16.8353 23.7703 17.184 23.77 17.5326C23.7698 17.7394 23.7698 17.9462 23.7702 18.153C23.7747 21.3968 23.7747 21.3968 22.6557 22.6287C21.8614 23.376 20.851 23.6041 19.7911 23.655C19.7369 23.6576 19.6826 23.6602 19.6267 23.6629C18.9374 23.6934 18.2481 23.6919 17.5583 23.6911C17.4136 23.6912 17.2688 23.6912 17.1241 23.6913C16.8229 23.6914 16.5216 23.6913 16.2204 23.691C15.8379 23.6906 15.4554 23.6908 15.073 23.6912C14.7747 23.6914 14.4765 23.6914 14.1782 23.6912C14.0373 23.6912 13.8964 23.6912 13.7556 23.6914C13.0797 23.6919 12.4049 23.6878 11.7297 23.6557C11.6544 23.6523 11.6544 23.6523 11.5776 23.6487C10.6522 23.5989 9.73583 23.361 9.02738 22.7388C8.97141 22.6916 8.97141 22.6916 8.9143 22.6435C8.06902 21.873 7.84164 20.7484 7.76878 19.6553C7.74647 19.0735 7.75102 18.4911 7.75207 17.909C7.75198 17.7409 7.75186 17.5729 7.7517 17.4048C7.75147 17.0543 7.75177 16.7037 7.75237 16.3532C7.75306 15.9509 7.75284 15.5486 7.75214 15.1464C7.75157 14.7977 7.75149 14.4491 7.75182 14.1004C7.75201 13.8936 7.752 13.6868 7.75163 13.48C7.74706 10.2254 7.74706 10.2254 8.87399 9.00043C9.65368 8.26227 10.6875 8.0286 11.7277 7.97834C11.8094 7.97436 11.8094 7.97436 11.8928 7.97031C12.5828 7.93972 13.2729 7.9412 13.9635 7.94193ZM20.1778 10.0545C19.9539 10.3168 19.884 10.484 19.8946 10.8394C19.9417 11.1542 20.1014 11.3544 20.3351 11.5609C20.5961 11.6889 20.8193 11.7392 21.1099 11.7261C21.4076 11.623 21.5958 11.4584 21.8022 11.2226C21.9193 10.8713 21.9241 10.5272 21.7628 10.1922C21.5384 9.94407 21.3439 9.80474 21.0195 9.71626C20.6643 9.71002 20.4434 9.82433 20.1778 10.0545ZM12.5515 11.8519C12.5051 11.8867 12.4587 11.9215 12.4109 11.9574C11.3745 12.7927 10.8266 14.0845 10.6636 15.376C10.5747 16.6183 10.8997 17.8891 11.6783 18.8765C11.7591 18.9687 11.8403 19.0606 11.9222 19.1518C11.9501 19.1893 11.978 19.2268 12.0067 19.2654C12.7077 20.1929 13.9878 20.7057 15.0942 20.8858C16.5808 21.07 17.9173 20.6108 19.0829 19.7081C20.1221 18.8217 20.6978 17.5981 20.8582 16.257C20.9177 15.3248 20.7658 14.4548 20.3548 13.614C20.3284 13.5574 20.302 13.5007 20.2749 13.4424C19.6799 12.2524 18.6356 11.4196 17.3971 10.9709C15.6786 10.4209 13.9613 10.7638 12.5515 11.8519Z" fill="#16A16C"/>
<path d="M17.9042 13.205C18.5649 13.7575 18.98 14.5249 19.0959 15.3761C19.1616 16.4192 18.9163 17.3096 18.2417 18.1163C17.5718 18.7948 16.7368 19.1545 15.7843 19.1677C14.8325 19.1586 13.9861 18.8161 13.3064 18.145C12.6175 17.309 12.3619 16.4579 12.4254 15.3761C12.5626 14.4832 12.9936 13.6742 13.7245 13.1296C15.0229 12.2143 16.6307 12.273 17.9042 13.205Z" fill="#16A16C"/>
</svg>
