<svg width="33" height="33" viewBox="0 0 33 33" fill="none" xmlns="http://www.w3.org/2000/svg">
<path d="M16.1064 0.000238899C16.1704 0.000374523 16.2345 0.000510146 16.3005 0.00064988C17.2198 0.00377566 18.1218 0.0195646 19.0248 0.208694C19.0861 0.221197 19.1475 0.2337 19.2107 0.246581C22.9591 1.03069 26.5055 3.03755 28.8418 6.12411C28.868 6.15802 28.8941 6.19193 28.921 6.22686C30.4629 8.23243 31.5007 10.5327 32.008 13.011C32.0173 13.0563 32.0265 13.1015 32.0361 13.1481C32.2232 14.1327 32.2635 15.1065 32.2597 16.1064C32.2596 16.1704 32.2594 16.2345 32.2593 16.3005C32.2562 17.2198 32.2404 18.1218 32.0513 19.0248C32.0325 19.1168 32.0325 19.1168 32.0134 19.2107C31.3682 22.2947 29.9624 25.0639 27.772 27.3315C27.7343 27.3706 27.6966 27.4097 27.6578 27.4499C27.1755 27.9471 26.6884 28.4219 26.1358 28.8418C26.1018 28.8681 26.0678 28.8943 26.0328 28.9213C24.0273 30.463 21.7271 31.5007 19.2489 32.008C19.2037 32.0173 19.1585 32.0265 19.1119 32.0361C18.1883 32.2116 17.2743 32.262 16.3359 32.2599C16.1509 32.2597 15.966 32.2612 15.781 32.2628C14.9395 32.2656 14.1279 32.1897 13.2981 32.0513C13.1908 32.0335 13.1908 32.0335 13.0813 32.0154C12.918 31.986 12.7561 31.9534 12.5941 31.9175C12.5067 31.8982 12.5067 31.8982 12.4175 31.8785C9.57972 31.2187 7.01917 29.7879 4.92844 27.772C4.86778 27.7139 4.86778 27.7139 4.8059 27.6547C4.22845 27.0992 3.703 26.5303 3.22933 25.8841C3.18924 25.8304 3.18924 25.8304 3.14834 25.7756C2.73831 25.2255 2.37123 24.6563 2.03366 24.0592C2.00835 24.0146 1.98304 23.9701 1.95697 23.9243C1.13728 22.4684 0.586714 20.8844 0.251959 19.2489C0.242686 19.2037 0.233413 19.1585 0.223859 19.1119C0.0367137 18.1272 -0.00356859 17.1535 0.000238899 16.1536C0.000374523 16.0895 0.000510147 16.0255 0.00064988 15.9595C0.00377566 15.0401 0.0195646 14.1382 0.208694 13.2352C0.221197 13.1739 0.2337 13.1125 0.246582 13.0493C0.883472 10.0046 2.26268 7.23644 4.425 4.99137C4.46478 4.94988 4.50456 4.90839 4.54555 4.86564C5.12101 4.26854 5.70609 3.71854 6.37583 3.22933C6.44827 3.17534 6.5207 3.12134 6.59314 3.06734C7.10851 2.68739 7.64358 2.34865 8.2008 2.03366C8.24531 2.00835 8.28981 1.98304 8.33567 1.95697C9.79158 1.13728 11.3756 0.586714 13.011 0.251959C13.0563 0.242686 13.1015 0.233413 13.1481 0.223858C14.1327 0.0367137 15.1065 -0.00356859 16.1064 0.000238899ZM7.69736 7.69736C7.36451 8.22053 7.23679 8.75332 7.34879 9.36648C7.50696 9.97125 7.85461 10.3988 8.38959 10.718C8.91542 11.0024 9.65033 10.9988 10.2214 10.8589C10.3739 10.8004 10.5129 10.7352 10.6551 10.6551C10.7226 10.6174 10.7901 10.5798 10.8596 10.541C11.3258 10.1701 11.6079 9.73592 11.6883 9.13787C11.7162 8.50634 11.5491 7.95593 11.1231 7.48104C10.564 6.98413 9.94844 6.88206 9.22538 6.91639C8.59289 6.96619 8.11023 7.21237 7.69736 7.69736ZM19.4023 12.6059C19.343 12.6311 19.2836 12.6564 19.2224 12.6823C18.5939 12.9886 17.9988 13.5145 17.6403 14.1162C17.6403 14.1578 17.6403 14.1993 17.6403 14.2421C17.5988 14.2421 17.5572 14.2421 17.5144 14.2421C17.5144 13.7021 17.5144 13.1622 17.5144 12.6059C16.2477 12.6059 14.9809 12.6059 13.6757 12.6059C13.6757 16.4893 13.6757 20.3727 13.6757 24.3738C14.9425 24.3738 16.2093 24.3738 17.5144 24.3738C17.5168 23.8632 17.5191 23.3527 17.5216 22.8266C17.5235 22.5025 17.5254 22.1785 17.5276 21.8544C17.531 21.3404 17.5342 20.8264 17.5362 20.3123C17.5378 19.8978 17.5404 19.4832 17.5436 19.0686C17.5446 18.9107 17.5454 18.7528 17.5458 18.5949C17.5464 18.3732 17.5481 18.1515 17.5502 17.9298C17.5501 17.865 17.55 17.8001 17.5499 17.7334C17.5593 17.0063 17.7451 16.4891 18.244 15.9609C18.6656 15.5631 19.1152 15.4234 19.6895 15.4102C20.1821 15.4251 20.6367 15.4863 21.0127 15.834C21.6471 16.6003 21.6749 17.5525 21.6807 18.5013C21.6814 18.5652 21.682 18.6292 21.6826 18.695C21.6846 18.9041 21.6862 19.1131 21.6877 19.3222C21.689 19.468 21.6903 19.6139 21.6917 19.7597C21.6952 20.1419 21.6983 20.524 21.7013 20.9062C21.705 21.3656 21.7092 21.825 21.7133 22.2845C21.7194 22.9809 21.725 23.6774 21.7307 24.3738C22.9975 24.3738 24.2643 24.3738 25.5695 24.3738C25.5752 23.0211 25.5752 23.0211 25.579 21.6684C25.58 21.1842 25.5813 20.6999 25.5837 20.2156C25.5858 19.7905 25.5869 19.3653 25.5874 18.9401C25.5877 18.7789 25.5884 18.6176 25.5894 18.4564C25.6003 16.6736 25.4963 14.8662 24.2056 13.494C23.4231 12.7051 22.3798 12.3459 21.2866 12.3302C20.6176 12.3314 20.0264 12.3398 19.4023 12.6059ZM7.5715 12.6059C7.5715 16.4893 7.5715 20.3727 7.5715 24.3738C8.83828 24.3738 10.1051 24.3738 11.4102 24.3738C11.4102 20.4904 11.4102 16.607 11.4102 12.6059C10.1435 12.6059 8.87667 12.6059 7.5715 12.6059Z" fill="#16A16C"/>
</svg>
